{
	"asset":{
		"generator":"Khronos glTF Blender I/O v4.2.57",
		"version":"2.0"
	},
	"scene":0,
	"scenes":[
		{
			"name":"Scene",
			"nodes":[
				0,
				1,
				2,
				3,
				4,
				5
			]
		}
	],
	"nodes":[
		{
			"mesh":0,
			"name":"Ceiling",
			"translation":[
				0,
				-0.39491450786590576,
				0
			]
		},
		{
			"mesh":1,
			"name":"DoorPath.004",
			"rotation":[
				0,
				-1,
				0,
				4.371138828673793e-08
			]
		},
		{
			"mesh":2,
			"name":"Floor.001"
		},
		{
			"mesh":3,
			"name":"DoorPath.001"
		},
		{
			"mesh":4,
			"name":"LCZWallNeoCB2.001",
			"translation":[
				4.686695098876953,
				0,
				0
			]
		},
		{
			"mesh":5,
			"name":"LCZWallNeoCB2.002",
			"rotation":[
				0,
				-1,
				0,
				4.371138828673793e-08
			],
			"translation":[
				-4.666193008422852,
				0,
				0
			]
		}
	],
	"materials":[
		{
			"doubleSided":true,
			"name":"Foreground.004",
			"normalTexture":{
				"index":0
			},
			"pbrMetallicRoughness":{
				"baseColorTexture":{
					"index":1
				},
				"metallicRoughnessTexture":{
					"index":2
				}
			}
		},
		{
			"doubleSided":true,
			"name":"Background.006",
			"normalTexture":{
				"index":3
			},
			"pbrMetallicRoughness":{
				"baseColorFactor":[
					0.800000011920929,
					0.800000011920929,
					0.800000011920929,
					1
				],
				"metallicFactor":0,
				"metallicRoughnessTexture":{
					"index":4
				}
			}
		},
		{
			"doubleSided":true,
			"name":"Glow.004",
			"pbrMetallicRoughness":{
				"baseColorFactor":[
					0,
					0,
					0,
					1
				],
				"metallicFactor":0,
				"roughnessFactor":0.5
			}
		},
		{
			"doubleSided":true,
			"name":"Foreground.001",
			"normalTexture":{
				"index":5
			},
			"pbrMetallicRoughness":{
				"baseColorTexture":{
					"index":6
				},
				"metallicRoughnessTexture":{
					"index":7
				}
			}
		},
		{
			"doubleSided":true,
			"name":"Background.001",
			"normalTexture":{
				"index":8
			},
			"pbrMetallicRoughness":{
				"baseColorFactor":[
					0.800000011920929,
					0.800000011920929,
					0.800000011920929,
					1
				],
				"metallicFactor":0,
				"metallicRoughnessTexture":{
					"index":9
				}
			}
		},
		{
			"doubleSided":true,
			"name":"Foreground.002",
			"normalTexture":{
				"index":10
			},
			"pbrMetallicRoughness":{
				"baseColorTexture":{
					"index":11
				},
				"metallicRoughnessTexture":{
					"index":12
				}
			}
		},
		{
			"doubleSided":true,
			"name":"Background.002",
			"normalTexture":{
				"index":13
			},
			"pbrMetallicRoughness":{
				"baseColorFactor":[
					0.800000011920929,
					0.800000011920929,
					0.800000011920929,
					1
				],
				"metallicFactor":0,
				"metallicRoughnessTexture":{
					"index":14
				}
			}
		},
		{
			"doubleSided":true,
			"name":"Foreground.003",
			"normalTexture":{
				"index":15
			},
			"pbrMetallicRoughness":{
				"baseColorTexture":{
					"index":16
				},
				"metallicRoughnessTexture":{
					"index":17
				}
			}
		},
		{
			"doubleSided":true,
			"name":"Background.003",
			"normalTexture":{
				"index":18
			},
			"pbrMetallicRoughness":{
				"baseColorFactor":[
					0.800000011920929,
					0.800000011920929,
					0.800000011920929,
					1
				],
				"metallicFactor":0,
				"metallicRoughnessTexture":{
					"index":19
				}
			}
		},
		{
			"doubleSided":true,
			"name":"Foreground.006",
			"normalTexture":{
				"index":20
			},
			"pbrMetallicRoughness":{
				"baseColorTexture":{
					"index":21
				},
				"metallicRoughnessTexture":{
					"index":22
				}
			}
		},
		{
			"doubleSided":true,
			"name":"Foreground.005",
			"normalTexture":{
				"index":23
			},
			"pbrMetallicRoughness":{
				"baseColorTexture":{
					"index":24
				},
				"metallicRoughnessTexture":{
					"index":25
				}
			}
		},
		{
			"doubleSided":true,
			"name":"Background.005",
			"normalTexture":{
				"index":26
			},
			"pbrMetallicRoughness":{
				"baseColorFactor":[
					0.800000011920929,
					0.800000011920929,
					0.800000011920929,
					1
				],
				"metallicFactor":0,
				"metallicRoughnessTexture":{
					"index":27
				}
			}
		}
	],
	"meshes":[
		{
			"name":"Plane.005",
			"primitives":[
				{
					"attributes":{
						"POSITION":0,
						"NORMAL":1,
						"TEXCOORD_0":2
					},
					"indices":3,
					"material":0
				}
			]
		},
		{
			"name":"Plane.010",
			"primitives":[
				{
					"attributes":{
						"POSITION":4,
						"NORMAL":5,
						"TEXCOORD_0":6
					},
					"indices":7,
					"material":1
				}
			]
		},
		{
			"name":"Plane.008",
			"primitives":[
				{
					"attributes":{
						"POSITION":8,
						"NORMAL":9,
						"TEXCOORD_0":10
					},
					"indices":11,
					"material":0
				}
			]
		},
		{
			"name":"Plane.001",
			"primitives":[
				{
					"attributes":{
						"POSITION":12,
						"NORMAL":13,
						"TEXCOORD_0":14
					},
					"indices":7,
					"material":1
				}
			]
		},
		{
			"name":"Plane.009",
			"primitives":[
				{
					"attributes":{
						"POSITION":15,
						"NORMAL":16,
						"TEXCOORD_0":17
					},
					"indices":18,
					"material":2
				},
				{
					"attributes":{
						"POSITION":19,
						"NORMAL":20,
						"TEXCOORD_0":21
					},
					"indices":22,
					"material":3
				},
				{
					"attributes":{
						"POSITION":23,
						"NORMAL":24,
						"TEXCOORD_0":25
					},
					"indices":26,
					"material":4
				},
				{
					"attributes":{
						"POSITION":27,
						"NORMAL":28,
						"TEXCOORD_0":29
					},
					"indices":22,
					"material":5
				},
				{
					"attributes":{
						"POSITION":30,
						"NORMAL":31,
						"TEXCOORD_0":32
					},
					"indices":26,
					"material":6
				},
				{
					"attributes":{
						"POSITION":33,
						"NORMAL":34,
						"TEXCOORD_0":35
					},
					"indices":22,
					"material":7
				},
				{
					"attributes":{
						"POSITION":36,
						"NORMAL":37,
						"TEXCOORD_0":38
					},
					"indices":39,
					"material":8
				}
			]
		},
		{
			"name":"Plane.006",
			"primitives":[
				{
					"attributes":{
						"POSITION":40,
						"NORMAL":41,
						"TEXCOORD_0":42
					},
					"indices":18,
					"material":2
				},
				{
					"attributes":{
						"POSITION":43,
						"NORMAL":44,
						"TEXCOORD_0":45
					},
					"indices":46,
					"material":9
				},
				{
					"attributes":{
						"POSITION":47,
						"NORMAL":48,
						"TEXCOORD_0":49
					},
					"indices":50,
					"material":1
				},
				{
					"attributes":{
						"POSITION":51,
						"NORMAL":52,
						"TEXCOORD_0":53
					},
					"indices":22,
					"material":10
				},
				{
					"attributes":{
						"POSITION":54,
						"NORMAL":55,
						"TEXCOORD_0":56
					},
					"indices":26,
					"material":11
				}
			]
		}
	],
	"textures":[
		{
			"sampler":0,
			"source":0
		},
		{
			"sampler":0,
			"source":1
		},
		{
			"sampler":0,
			"source":2
		},
		{
			"sampler":0,
			"source":3
		},
		{
			"sampler":0,
			"source":4
		},
		{
			"sampler":0,
			"source":5
		},
		{
			"sampler":0,
			"source":6
		},
		{
			"sampler":0,
			"source":7
		},
		{
			"sampler":0,
			"source":3
		},
		{
			"sampler":0,
			"source":4
		},
		{
			"sampler":0,
			"source":5
		},
		{
			"sampler":0,
			"source":6
		},
		{
			"sampler":0,
			"source":7
		},
		{
			"sampler":0,
			"source":3
		},
		{
			"sampler":0,
			"source":4
		},
		{
			"sampler":0,
			"source":5
		},
		{
			"sampler":0,
			"source":6
		},
		{
			"sampler":0,
			"source":7
		},
		{
			"sampler":0,
			"source":3
		},
		{
			"sampler":0,
			"source":4
		},
		{
			"sampler":0,
			"source":5
		},
		{
			"sampler":0,
			"source":6
		},
		{
			"sampler":0,
			"source":7
		},
		{
			"sampler":0,
			"source":5
		},
		{
			"sampler":0,
			"source":6
		},
		{
			"sampler":0,
			"source":7
		},
		{
			"sampler":0,
			"source":3
		},
		{
			"sampler":0,
			"source":4
		}
	],
	"images":[
		{
			"mimeType":"image/png",
			"name":"MetalWalkway011_2K-PNG_NormalGL",
			"uri":"MetalWalkway011_2K-PNG_NormalGL.png"
		},
		{
			"mimeType":"image/png",
			"name":"MetalWalkway011_2K-PNG_Color",
			"uri":"MetalWalkway011_2K-PNG_Color.png"
		},
		{
			"mimeType":"image/png",
			"name":"MetalWalkway011_2K-PNG_Metalness-MetalWalkway011_2K-PNG_Roughness",
			"uri":"MetalWalkway011_2K-PNG_Metalness-MetalWalkway011_2K-PNG_Roughness.png"
		},
		{
			"mimeType":"image/png",
			"name":"beige_wall_001_nor_gl_2k",
			"uri":"beige_wall_001_nor_gl_2k.png"
		},
		{
			"mimeType":"image/png",
			"name":"beige_wall_001_rough_2k",
			"uri":"beige_wall_001_rough_2k.png"
		},
		{
			"mimeType":"image/png",
			"name":"SheetMetal001_2K-PNG_NormalGL",
			"uri":"SheetMetal001_2K-PNG_NormalGL.png"
		},
		{
			"mimeType":"image/png",
			"name":"SheetMetal001_2K-PNG_Color",
			"uri":"SheetMetal001_2K-PNG_Color.png"
		},
		{
			"mimeType":"image/png",
			"name":"SheetMetal001_2K-PNG_Metalness-SheetMetal001_2K-PNG_Roughness",
			"uri":"SheetMetal001_2K-PNG_Metalness-SheetMetal001_2K-PNG_Roughness.png"
		}
	],
	"accessors":[
		{
			"bufferView":0,
			"componentType":5126,
			"count":4,
			"max":[
				10,
				6.99613094329834,
				10
			],
			"min":[
				-10,
				6.99613094329834,
				-10
			],
			"type":"VEC3"
		},
		{
			"bufferView":1,
			"componentType":5126,
			"count":4,
			"type":"VEC3"
		},
		{
			"bufferView":2,
			"componentType":5126,
			"count":4,
			"type":"VEC2"
		},
		{
			"bufferView":3,
			"componentType":5123,
			"count":6,
			"type":"SCALAR"
		},
		{
			"bufferView":4,
			"componentType":5126,
			"count":57,
			"max":[
				8.00000286102295,
				6.996889114379883,
				10.238296508789062
			],
			"min":[
				-7.999997615814209,
				-0.0031108856201171875,
				9.9354829788208
			],
			"type":"VEC3"
		},
		{
			"bufferView":5,
			"componentType":5126,
			"count":57,
			"type":"VEC3"
		},
		{
			"bufferView":6,
			"componentType":5126,
			"count":57,
			"type":"VEC2"
		},
		{
			"bufferView":7,
			"componentType":5123,
			"count":129,
			"type":"SCALAR"
		},
		{
			"bufferView":8,
			"componentType":5126,
			"count":4,
			"max":[
				10.238296508789062,
				3.755558282136917e-07,
				10.238296508789062
			],
			"min":[
				-10.238295555114746,
				3.755558282136917e-07,
				-10.238296508789062
			],
			"type":"VEC3"
		},
		{
			"bufferView":9,
			"componentType":5126,
			"count":4,
			"type":"VEC3"
		},
		{
			"bufferView":10,
			"componentType":5126,
			"count":4,
			"type":"VEC2"
		},
		{
			"bufferView":11,
			"componentType":5123,
			"count":6,
			"type":"SCALAR"
		},
		{
			"bufferView":12,
			"componentType":5126,
			"count":57,
			"max":[
				8.00000286102295,
				6.996889114379883,
				10.238296508789062
			],
			"min":[
				-7.999997615814209,
				-0.0031108856201171875,
				9.9354829788208
			],
			"type":"VEC3"
		},
		{
			"bufferView":13,
			"componentType":5126,
			"count":57,
			"type":"VEC3"
		},
		{
			"bufferView":14,
			"componentType":5126,
			"count":57,
			"type":"VEC2"
		},
		{
			"bufferView":15,
			"componentType":5126,
			"count":24,
			"max":[
				3.265799045562744,
				6.610196113586426,
				7.629590034484863
			],
			"min":[
				3.0861258506774902,
				-0.10641400516033173,
				-7.913471698760986
			],
			"type":"VEC3"
		},
		{
			"bufferView":16,
			"componentType":5126,
			"count":24,
			"type":"VEC3"
		},
		{
			"bufferView":17,
			"componentType":5126,
			"count":24,
			"type":"VEC2"
		},
		{
			"bufferView":18,
			"componentType":5123,
			"count":36,
			"type":"SCALAR"
		},
		{
			"bufferView":19,
			"componentType":5126,
			"count":4,
			"max":[
				3.265799045562744,
				6.610196113586426,
				-6.571379661560059
			],
			"min":[
				3.265798807144165,
				-0.10641399770975113,
				-7.851383686065674
			],
			"type":"VEC3"
		},
		{
			"bufferView":20,
			"componentType":5126,
			"count":4,
			"type":"VEC3"
		},
		{
			"bufferView":21,
			"componentType":5126,
			"count":4,
			"type":"VEC2"
		},
		{
			"bufferView":22,
			"componentType":5123,
			"count":6,
			"type":"SCALAR"
		},
		{
			"bufferView":23,
			"componentType":5126,
			"count":10,
			"max":[
				3.0861263275146484,
				6.610196113586426,
				-2.78707218170166
			],
			"min":[
				3.0861260890960693,
				-0.10641400516033173,
				-10.046891212463379
			],
			"type":"VEC3"
		},
		{
			"bufferView":24,
			"componentType":5126,
			"count":10,
			"type":"VEC3"
		},
		{
			"bufferView":25,
			"componentType":5126,
			"count":10,
			"type":"VEC2"
		},
		{
			"bufferView":26,
			"componentType":5123,
			"count":18,
			"type":"SCALAR"
		},
		{
			"bufferView":27,
			"componentType":5126,
			"count":4,
			"max":[
				3.265798807144165,
				6.610196113586426,
				0.6884393692016602
			],
			"min":[
				3.265798568725586,
				-0.10641399770975113,
				-0.5915646553039551
			],
			"type":"VEC3"
		},
		{
			"bufferView":28,
			"componentType":5126,
			"count":4,
			"type":"VEC3"
		},
		{
			"bufferView":29,
			"componentType":5126,
			"count":4,
			"type":"VEC2"
		},
		{
			"bufferView":30,
			"componentType":5126,
			"count":10,
			"max":[
				3.0861260890960693,
				6.610196113586426,
				4.078685760498047
			],
			"min":[
				3.0861258506774902,
				-0.10641400516033173,
				-2.78707218170166
			],
			"type":"VEC3"
		},
		{
			"bufferView":31,
			"componentType":5126,
			"count":10,
			"type":"VEC3"
		},
		{
			"bufferView":32,
			"componentType":5126,
			"count":10,
			"type":"VEC2"
		},
		{
			"bufferView":33,
			"componentType":5126,
			"count":4,
			"max":[
				3.265798568725586,
				6.610196113586426,
				7.554197311401367
			],
			"min":[
				3.265798330307007,
				-0.10641399770975113,
				6.274192810058594
			],
			"type":"VEC3"
		},
		{
			"bufferView":34,
			"componentType":5126,
			"count":4,
			"type":"VEC3"
		},
		{
			"bufferView":35,
			"componentType":5126,
			"count":4,
			"type":"VEC2"
		},
		{
			"bufferView":36,
			"componentType":5126,
			"count":8,
			"max":[
				3.0861258506774902,
				6.610196113586426,
				10.136270523071289
			],
			"min":[
				3.086125612258911,
				-0.10641400516033173,
				4.078685760498047
			],
			"type":"VEC3"
		},
		{
			"bufferView":37,
			"componentType":5126,
			"count":8,
			"type":"VEC3"
		},
		{
			"bufferView":38,
			"componentType":5126,
			"count":8,
			"type":"VEC2"
		},
		{
			"bufferView":39,
			"componentType":5123,
			"count":12,
			"type":"SCALAR"
		},
		{
			"bufferView":40,
			"componentType":5126,
			"count":24,
			"max":[
				3.265799045562744,
				6.610196113586426,
				7.629590034484863
			],
			"min":[
				3.0861258506774902,
				-0.10641400516033173,
				-7.913471698760986
			],
			"type":"VEC3"
		},
		{
			"bufferView":41,
			"componentType":5126,
			"count":24,
			"type":"VEC3"
		},
		{
			"bufferView":42,
			"componentType":5126,
			"count":24,
			"type":"VEC2"
		},
		{
			"bufferView":43,
			"componentType":5126,
			"count":8,
			"max":[
				3.265799045562744,
				6.610196113586426,
				7.554197311401367
			],
			"min":[
				3.265798330307007,
				-0.10641399770975113,
				-7.851383686065674
			],
			"type":"VEC3"
		},
		{
			"bufferView":44,
			"componentType":5126,
			"count":8,
			"type":"VEC3"
		},
		{
			"bufferView":45,
			"componentType":5126,
			"count":8,
			"type":"VEC2"
		},
		{
			"bufferView":46,
			"componentType":5123,
			"count":12,
			"type":"SCALAR"
		},
		{
			"bufferView":47,
			"componentType":5126,
			"count":18,
			"max":[
				3.0861263275146484,
				6.610196113586426,
				10.136270523071289
			],
			"min":[
				3.086125612258911,
				-0.10641400516033173,
				-10.046891212463379
			],
			"type":"VEC3"
		},
		{
			"bufferView":48,
			"componentType":5126,
			"count":18,
			"type":"VEC3"
		},
		{
			"bufferView":49,
			"componentType":5126,
			"count":18,
			"type":"VEC2"
		},
		{
			"bufferView":50,
			"componentType":5123,
			"count":30,
			"type":"SCALAR"
		},
		{
			"bufferView":51,
			"componentType":5126,
			"count":4,
			"max":[
				3.265798807144165,
				6.610196113586426,
				0.6884393692016602
			],
			"min":[
				3.265798568725586,
				-0.10641399770975113,
				-0.5915646553039551
			],
			"type":"VEC3"
		},
		{
			"bufferView":52,
			"componentType":5126,
			"count":4,
			"type":"VEC3"
		},
		{
			"bufferView":53,
			"componentType":5126,
			"count":4,
			"type":"VEC2"
		},
		{
			"bufferView":54,
			"componentType":5126,
			"count":10,
			"max":[
				3.0861260890960693,
				6.610196113586426,
				4.078685760498047
			],
			"min":[
				3.0861258506774902,
				-0.10641400516033173,
				-2.78707218170166
			],
			"type":"VEC3"
		},
		{
			"bufferView":55,
			"componentType":5126,
			"count":10,
			"type":"VEC3"
		},
		{
			"bufferView":56,
			"componentType":5126,
			"count":10,
			"type":"VEC2"
		}
	],
	"bufferViews":[
		{
			"buffer":0,
			"byteLength":48,
			"byteOffset":0,
			"target":34962
		},
		{
			"buffer":0,
			"byteLength":48,
			"byteOffset":48,
			"target":34962
		},
		{
			"buffer":0,
			"byteLength":32,
			"byteOffset":96,
			"target":34962
		},
		{
			"buffer":0,
			"byteLength":12,
			"byteOffset":128,
			"target":34963
		},
		{
			"buffer":0,
			"byteLength":684,
			"byteOffset":140,
			"target":34962
		},
		{
			"buffer":0,
			"byteLength":684,
			"byteOffset":824,
			"target":34962
		},
		{
			"buffer":0,
			"byteLength":456,
			"byteOffset":1508,
			"target":34962
		},
		{
			"buffer":0,
			"byteLength":258,
			"byteOffset":1964,
			"target":34963
		},
		{
			"buffer":0,
			"byteLength":48,
			"byteOffset":2224,
			"target":34962
		},
		{
			"buffer":0,
			"byteLength":48,
			"byteOffset":2272,
			"target":34962
		},
		{
			"buffer":0,
			"byteLength":32,
			"byteOffset":2320,
			"target":34962
		},
		{
			"buffer":0,
			"byteLength":12,
			"byteOffset":2352,
			"target":34963
		},
		{
			"buffer":0,
			"byteLength":684,
			"byteOffset":2364,
			"target":34962
		},
		{
			"buffer":0,
			"byteLength":684,
			"byteOffset":3048,
			"target":34962
		},
		{
			"buffer":0,
			"byteLength":456,
			"byteOffset":3732,
			"target":34962
		},
		{
			"buffer":0,
			"byteLength":288,
			"byteOffset":4188,
			"target":34962
		},
		{
			"buffer":0,
			"byteLength":288,
			"byteOffset":4476,
			"target":34962
		},
		{
			"buffer":0,
			"byteLength":192,
			"byteOffset":4764,
			"target":34962
		},
		{
			"buffer":0,
			"byteLength":72,
			"byteOffset":4956,
			"target":34963
		},
		{
			"buffer":0,
			"byteLength":48,
			"byteOffset":5028,
			"target":34962
		},
		{
			"buffer":0,
			"byteLength":48,
			"byteOffset":5076,
			"target":34962
		},
		{
			"buffer":0,
			"byteLength":32,
			"byteOffset":5124,
			"target":34962
		},
		{
			"buffer":0,
			"byteLength":12,
			"byteOffset":5156,
			"target":34963
		},
		{
			"buffer":0,
			"byteLength":120,
			"byteOffset":5168,
			"target":34962
		},
		{
			"buffer":0,
			"byteLength":120,
			"byteOffset":5288,
			"target":34962
		},
		{
			"buffer":0,
			"byteLength":80,
			"byteOffset":5408,
			"target":34962
		},
		{
			"buffer":0,
			"byteLength":36,
			"byteOffset":5488,
			"target":34963
		},
		{
			"buffer":0,
			"byteLength":48,
			"byteOffset":5524,
			"target":34962
		},
		{
			"buffer":0,
			"byteLength":48,
			"byteOffset":5572,
			"target":34962
		},
		{
			"buffer":0,
			"byteLength":32,
			"byteOffset":5620,
			"target":34962
		},
		{
			"buffer":0,
			"byteLength":120,
			"byteOffset":5652,
			"target":34962
		},
		{
			"buffer":0,
			"byteLength":120,
			"byteOffset":5772,
			"target":34962
		},
		{
			"buffer":0,
			"byteLength":80,
			"byteOffset":5892,
			"target":34962
		},
		{
			"buffer":0,
			"byteLength":48,
			"byteOffset":5972,
			"target":34962
		},
		{
			"buffer":0,
			"byteLength":48,
			"byteOffset":6020,
			"target":34962
		},
		{
			"buffer":0,
			"byteLength":32,
			"byteOffset":6068,
			"target":34962
		},
		{
			"buffer":0,
			"byteLength":96,
			"byteOffset":6100,
			"target":34962
		},
		{
			"buffer":0,
			"byteLength":96,
			"byteOffset":6196,
			"target":34962
		},
		{
			"buffer":0,
			"byteLength":64,
			"byteOffset":6292,
			"target":34962
		},
		{
			"buffer":0,
			"byteLength":24,
			"byteOffset":6356,
			"target":34963
		},
		{
			"buffer":0,
			"byteLength":288,
			"byteOffset":6380,
			"target":34962
		},
		{
			"buffer":0,
			"byteLength":288,
			"byteOffset":6668,
			"target":34962
		},
		{
			"buffer":0,
			"byteLength":192,
			"byteOffset":6956,
			"target":34962
		},
		{
			"buffer":0,
			"byteLength":96,
			"byteOffset":7148,
			"target":34962
		},
		{
			"buffer":0,
			"byteLength":96,
			"byteOffset":7244,
			"target":34962
		},
		{
			"buffer":0,
			"byteLength":64,
			"byteOffset":7340,
			"target":34962
		},
		{
			"buffer":0,
			"byteLength":24,
			"byteOffset":7404,
			"target":34963
		},
		{
			"buffer":0,
			"byteLength":216,
			"byteOffset":7428,
			"target":34962
		},
		{
			"buffer":0,
			"byteLength":216,
			"byteOffset":7644,
			"target":34962
		},
		{
			"buffer":0,
			"byteLength":144,
			"byteOffset":7860,
			"target":34962
		},
		{
			"buffer":0,
			"byteLength":60,
			"byteOffset":8004,
			"target":34963
		},
		{
			"buffer":0,
			"byteLength":48,
			"byteOffset":8064,
			"target":34962
		},
		{
			"buffer":0,
			"byteLength":48,
			"byteOffset":8112,
			"target":34962
		},
		{
			"buffer":0,
			"byteLength":32,
			"byteOffset":8160,
			"target":34962
		},
		{
			"buffer":0,
			"byteLength":120,
			"byteOffset":8192,
			"target":34962
		},
		{
			"buffer":0,
			"byteLength":120,
			"byteOffset":8312,
			"target":34962
		},
		{
			"buffer":0,
			"byteLength":80,
			"byteOffset":8432,
			"target":34962
		}
	],
	"samplers":[
		{
			"magFilter":9729,
			"minFilter":9987
		}
	],
	"buffers":[
		{
			"byteLength":8512,
			"uri":"LC_room2_servers.bin"
		}
	]
}
