{
	"asset":{
		"generator":"Khronos glTF Blender I/O v3.5.30",
		"version":"2.0"
	},
	"extensionsUsed":[
		"KHR_materials_specular",
		"KHR_materials_ior"
	],
	"scene":0,
	"scenes":[
		{
			"name":"Scene",
			"nodes":[
				0
			]
		}
	],
	"nodes":[
		{
			"mesh":0,
			"name":"LC_room1_endroom"
		}
	],
	"materials":[
		{
			"doubleSided":true,
			"extensions":{
				"KHR_materials_specular":{
					"specularColorFactor":[
						2.371357614441398,
						2.371357614441398,
						2.371357614441398
					]
				},
				"KHR_materials_ior":{
					"ior":1.4500000476837158
				}
			},
			"name":"mat0.009",
			"pbrMetallicRoughness":{
				"baseColorTexture":{
					"index":0
				},
				"metallicFactor":0,
				"roughnessFactor":0.9505894184112549
			}
		},
		{
			"doubleSided":true,
			"extensions":{
				"KHR_materials_specular":{
					"specularColorFactor":[
						2.371357614441398,
						2.371357614441398,
						2.371357614441398
					]
				},
				"KHR_materials_ior":{
					"ior":1.4500000476837158
				}
			},
			"name":"mat1.009",
			"pbrMetallicRoughness":{
				"baseColorTexture":{
					"index":1
				},
				"metallicFactor":0,
				"roughnessFactor":0.9505894184112549
			}
		},
		{
			"doubleSided":true,
			"extensions":{
				"KHR_materials_specular":{
					"specularColorFactor":[
						2.371357614441398,
						2.371357614441398,
						2.371357614441398
					]
				},
				"KHR_materials_ior":{
					"ior":1.4500000476837158
				}
			},
			"name":"mat2.009",
			"pbrMetallicRoughness":{
				"baseColorTexture":{
					"index":2
				},
				"metallicFactor":0,
				"roughnessFactor":0.9505894184112549
			}
		},
		{
			"doubleSided":true,
			"extensions":{
				"KHR_materials_specular":{
					"specularColorFactor":[
						2.371357614441398,
						2.371357614441398,
						2.371357614441398
					]
				},
				"KHR_materials_ior":{
					"ior":1.4500000476837158
				}
			},
			"name":"mat3.009",
			"pbrMetallicRoughness":{
				"baseColorTexture":{
					"index":3
				},
				"metallicFactor":0,
				"roughnessFactor":0.9505894184112549
			}
		},
		{
			"doubleSided":true,
			"extensions":{
				"KHR_materials_specular":{
					"specularColorFactor":[
						2.371357614441398,
						2.371357614441398,
						2.371357614441398
					]
				},
				"KHR_materials_ior":{
					"ior":1.4500000476837158
				}
			},
			"name":"mat4.008",
			"pbrMetallicRoughness":{
				"baseColorTexture":{
					"index":4
				},
				"metallicFactor":0,
				"roughnessFactor":0.9505894184112549
			}
		},
		{
			"doubleSided":true,
			"extensions":{
				"KHR_materials_specular":{
					"specularColorFactor":[
						2.371357614441398,
						2.371357614441398,
						2.371357614441398
					]
				},
				"KHR_materials_ior":{
					"ior":1.4500000476837158
				}
			},
			"name":"mat5.008",
			"pbrMetallicRoughness":{
				"baseColorTexture":{
					"index":5
				},
				"metallicFactor":0,
				"roughnessFactor":0.9505894184112549
			}
		}
	],
	"meshes":[
		{
			"name":"LC_room1_endroom",
			"primitives":[
				{
					"attributes":{
						"POSITION":0,
						"TEXCOORD_0":1,
						"NORMAL":2
					},
					"indices":3,
					"material":0
				},
				{
					"attributes":{
						"POSITION":4,
						"TEXCOORD_0":5,
						"NORMAL":6
					},
					"indices":7,
					"material":1
				},
				{
					"attributes":{
						"POSITION":8,
						"TEXCOORD_0":9,
						"NORMAL":10
					},
					"indices":11,
					"material":2
				},
				{
					"attributes":{
						"POSITION":12,
						"TEXCOORD_0":13,
						"NORMAL":14
					},
					"indices":15,
					"material":3
				},
				{
					"attributes":{
						"POSITION":16,
						"TEXCOORD_0":17,
						"NORMAL":18
					},
					"indices":19,
					"material":4
				},
				{
					"attributes":{
						"POSITION":20,
						"TEXCOORD_0":21,
						"NORMAL":22
					},
					"indices":11,
					"material":5
				}
			]
		}
	],
	"textures":[
		{
			"sampler":0,
			"source":0
		},
		{
			"sampler":0,
			"source":1
		},
		{
			"sampler":0,
			"source":2
		},
		{
			"sampler":0,
			"source":3
		},
		{
			"sampler":0,
			"source":4
		},
		{
			"sampler":0,
			"source":5
		}
	],
	"images":[
		{
			"mimeType":"image/jpeg",
			"name":"whitewall_2k",
			"uri":"whitewall_2k.jpg"
		},
		{
			"mimeType":"image/jpeg",
			"name":"dirtymetal",
			"uri":"dirtymetal.jpg"
		},
		{
			"mimeType":"image/jpeg",
			"name":"tilefloor",
			"uri":"tilefloor.jpg"
		},
		{
			"mimeType":"image/jpeg",
			"name":"metalpanels2",
			"uri":"metalpanels2.jpg"
		},
		{
			"mimeType":"image/jpeg",
			"name":"misc",
			"uri":"misc.jpg"
		},
		{
			"mimeType":"image/jpeg",
			"name":"concretefloor",
			"uri":"concretefloor.jpg"
		}
	],
	"accessors":[
		{
			"bufferView":0,
			"componentType":5126,
			"count":1464,
			"max":[
				7.839999198913574,
				7.040004253387451,
				10.240002632141113
			],
			"min":[
				-7.199999809265137,
				-3.3758349218260264e-06,
				-10.720000267028809
			],
			"type":"VEC3"
		},
		{
			"bufferView":1,
			"componentType":5126,
			"count":1464,
			"type":"VEC2"
		},
		{
			"bufferView":2,
			"componentType":5126,
			"count":1464,
			"type":"VEC3"
		},
		{
			"bufferView":3,
			"componentType":5123,
			"count":2196,
			"type":"SCALAR"
		},
		{
			"bufferView":4,
			"componentType":5126,
			"count":6525,
			"max":[
				7.139999866485596,
				6.320003032684326,
				8.3200044631958
			],
			"min":[
				-7.119999885559082,
				3.3865835575852543e-06,
				-12.400001525878906
			],
			"type":"VEC3"
		},
		{
			"bufferView":5,
			"componentType":5126,
			"count":6525,
			"type":"VEC2"
		},
		{
			"bufferView":6,
			"componentType":5126,
			"count":6525,
			"type":"VEC3"
		},
		{
			"bufferView":7,
			"componentType":5123,
			"count":11232,
			"type":"SCALAR"
		},
		{
			"bufferView":8,
			"componentType":5126,
			"count":20,
			"max":[
				7.360000133514404,
				3.54781423084205e-06,
				10.24000072479248
			],
			"min":[
				-7.199999809265137,
				-0.010003376752138138,
				-11.520001411437988
			],
			"type":"VEC3"
		},
		{
			"bufferView":9,
			"componentType":5126,
			"count":20,
			"type":"VEC2"
		},
		{
			"bufferView":10,
			"componentType":5126,
			"count":20,
			"type":"VEC3"
		},
		{
			"bufferView":11,
			"componentType":5123,
			"count":30,
			"type":"SCALAR"
		},
		{
			"bufferView":12,
			"componentType":5126,
			"count":1296,
			"max":[
				7.840000152587891,
				5.44000244140625,
				10.000001907348633
			],
			"min":[
				-7.199999809265137,
				3.499997138977051,
				-9.920000076293945
			],
			"type":"VEC3"
		},
		{
			"bufferView":13,
			"componentType":5126,
			"count":1296,
			"type":"VEC2"
		},
		{
			"bufferView":14,
			"componentType":5126,
			"count":1296,
			"type":"VEC3"
		},
		{
			"bufferView":15,
			"componentType":5123,
			"count":1944,
			"type":"SCALAR"
		},
		{
			"bufferView":16,
			"componentType":5126,
			"count":72,
			"max":[
				2.670438051223755,
				7.068683624267578,
				2.7600021362304688
			],
			"min":[
				-2.6895620822906494,
				7.030439376831055,
				-5.319998741149902
			],
			"type":"VEC3"
		},
		{
			"bufferView":17,
			"componentType":5126,
			"count":72,
			"type":"VEC2"
		},
		{
			"bufferView":18,
			"componentType":5126,
			"count":72,
			"type":"VEC3"
		},
		{
			"bufferView":19,
			"componentType":5123,
			"count":108,
			"type":"SCALAR"
		},
		{
			"bufferView":20,
			"componentType":5126,
			"count":20,
			"max":[
				7.360000133514404,
				7.0800042152404785,
				10.240002632141113
			],
			"min":[
				-7.199999809265137,
				7.039998531341553,
				-11.519998550415039
			],
			"type":"VEC3"
		},
		{
			"bufferView":21,
			"componentType":5126,
			"count":20,
			"type":"VEC2"
		},
		{
			"bufferView":22,
			"componentType":5126,
			"count":20,
			"type":"VEC3"
		}
	],
	"bufferViews":[
		{
			"buffer":0,
			"byteLength":17568,
			"byteOffset":0,
			"target":34962
		},
		{
			"buffer":0,
			"byteLength":11712,
			"byteOffset":17568,
			"target":34962
		},
		{
			"buffer":0,
			"byteLength":17568,
			"byteOffset":29280,
			"target":34962
		},
		{
			"buffer":0,
			"byteLength":4392,
			"byteOffset":46848,
			"target":34963
		},
		{
			"buffer":0,
			"byteLength":78300,
			"byteOffset":51240,
			"target":34962
		},
		{
			"buffer":0,
			"byteLength":52200,
			"byteOffset":129540,
			"target":34962
		},
		{
			"buffer":0,
			"byteLength":78300,
			"byteOffset":181740,
			"target":34962
		},
		{
			"buffer":0,
			"byteLength":22464,
			"byteOffset":260040,
			"target":34963
		},
		{
			"buffer":0,
			"byteLength":240,
			"byteOffset":282504,
			"target":34962
		},
		{
			"buffer":0,
			"byteLength":160,
			"byteOffset":282744,
			"target":34962
		},
		{
			"buffer":0,
			"byteLength":240,
			"byteOffset":282904,
			"target":34962
		},
		{
			"buffer":0,
			"byteLength":60,
			"byteOffset":283144,
			"target":34963
		},
		{
			"buffer":0,
			"byteLength":15552,
			"byteOffset":283204,
			"target":34962
		},
		{
			"buffer":0,
			"byteLength":10368,
			"byteOffset":298756,
			"target":34962
		},
		{
			"buffer":0,
			"byteLength":15552,
			"byteOffset":309124,
			"target":34962
		},
		{
			"buffer":0,
			"byteLength":3888,
			"byteOffset":324676,
			"target":34963
		},
		{
			"buffer":0,
			"byteLength":864,
			"byteOffset":328564,
			"target":34962
		},
		{
			"buffer":0,
			"byteLength":576,
			"byteOffset":329428,
			"target":34962
		},
		{
			"buffer":0,
			"byteLength":864,
			"byteOffset":330004,
			"target":34962
		},
		{
			"buffer":0,
			"byteLength":216,
			"byteOffset":330868,
			"target":34963
		},
		{
			"buffer":0,
			"byteLength":240,
			"byteOffset":331084,
			"target":34962
		},
		{
			"buffer":0,
			"byteLength":160,
			"byteOffset":331324,
			"target":34962
		},
		{
			"buffer":0,
			"byteLength":240,
			"byteOffset":331484,
			"target":34962
		}
	],
	"samplers":[
		{
			"magFilter":9729,
			"minFilter":9987
		}
	],
	"buffers":[
		{
			"byteLength":331724,
			"uri":"LC_room1_endroom.bin"
		}
	]
}
