{
	"asset":{
		"generator":"Khronos glTF Blender I/O v3.5.30",
		"version":"2.0"
	},
	"extensionsUsed":[
		"KHR_materials_specular",
		"KHR_materials_ior"
	],
	"scene":0,
	"scenes":[
		{
			"name":"Scene",
			"nodes":[
				0
			]
		}
	],
	"nodes":[
		{
			"mesh":0,
			"name":"RZ_exit1_gatea"
		}
	],
	"materials":[
		{
			"doubleSided":true,
			"extensions":{
				"KHR_materials_specular":{
					"specularColorFactor":[
						2.371357614441398,
						2.371357614441398,
						2.371357614441398
					]
				},
				"KHR_materials_ior":{
					"ior":1.4500000476837158
				}
			},
			"name":"mat0",
			"pbrMetallicRoughness":{
				"baseColorTexture":{
					"index":0
				},
				"metallicFactor":0,
				"roughnessFactor":0.9505894184112549
			}
		},
		{
			"doubleSided":true,
			"extensions":{
				"KHR_materials_specular":{
					"specularColorFactor":[
						2.371357614441398,
						2.371357614441398,
						2.371357614441398
					]
				},
				"KHR_materials_ior":{
					"ior":1.4500000476837158
				}
			},
			"name":"mat1",
			"pbrMetallicRoughness":{
				"baseColorTexture":{
					"index":1
				},
				"metallicFactor":0,
				"roughnessFactor":0.9505894184112549
			}
		},
		{
			"doubleSided":true,
			"extensions":{
				"KHR_materials_specular":{
					"specularColorFactor":[
						2.371357614441398,
						2.371357614441398,
						2.371357614441398
					]
				},
				"KHR_materials_ior":{
					"ior":1.4500000476837158
				}
			},
			"name":"mat2",
			"pbrMetallicRoughness":{
				"baseColorTexture":{
					"index":2
				},
				"metallicFactor":0,
				"roughnessFactor":0.9505894184112549
			}
		},
		{
			"doubleSided":true,
			"extensions":{
				"KHR_materials_specular":{
					"specularColorFactor":[
						2.371357614441398,
						2.371357614441398,
						2.371357614441398
					]
				},
				"KHR_materials_ior":{
					"ior":1.4500000476837158
				}
			},
			"name":"mat3",
			"pbrMetallicRoughness":{
				"baseColorTexture":{
					"index":3
				},
				"metallicFactor":0,
				"roughnessFactor":0.9505894184112549
			}
		},
		{
			"doubleSided":true,
			"extensions":{
				"KHR_materials_specular":{
					"specularColorFactor":[
						2.371357614441398,
						2.371357614441398,
						2.371357614441398
					]
				},
				"KHR_materials_ior":{
					"ior":1.4500000476837158
				}
			},
			"name":"mat4",
			"pbrMetallicRoughness":{
				"baseColorTexture":{
					"index":4
				},
				"metallicFactor":0,
				"roughnessFactor":0.9505894184112549
			}
		},
		{
			"doubleSided":true,
			"extensions":{
				"KHR_materials_specular":{
					"specularColorFactor":[
						2.371357614441398,
						2.371357614441398,
						2.371357614441398
					]
				},
				"KHR_materials_ior":{
					"ior":1.4500000476837158
				}
			},
			"name":"mat5",
			"pbrMetallicRoughness":{
				"baseColorTexture":{
					"index":5
				},
				"metallicFactor":0,
				"roughnessFactor":0.9505894184112549
			}
		},
		{
			"doubleSided":true,
			"extensions":{
				"KHR_materials_specular":{
					"specularColorFactor":[
						2.371357614441398,
						2.371357614441398,
						2.371357614441398
					]
				},
				"KHR_materials_ior":{
					"ior":1.4500000476837158
				}
			},
			"name":"mat6",
			"pbrMetallicRoughness":{
				"baseColorTexture":{
					"index":6
				},
				"metallicFactor":0,
				"roughnessFactor":0.9505894184112549
			}
		},
		{
			"doubleSided":true,
			"extensions":{
				"KHR_materials_specular":{
					"specularColorFactor":[
						2.371357614441398,
						2.371357614441398,
						2.371357614441398
					]
				},
				"KHR_materials_ior":{
					"ior":1.4500000476837158
				}
			},
			"name":"mat7",
			"pbrMetallicRoughness":{
				"baseColorTexture":{
					"index":7
				},
				"metallicFactor":0,
				"roughnessFactor":0.9505894184112549
			}
		},
		{
			"doubleSided":true,
			"extensions":{
				"KHR_materials_specular":{
					"specularColorFactor":[
						2.371357614441398,
						2.371357614441398,
						2.371357614441398
					]
				},
				"KHR_materials_ior":{
					"ior":1.4500000476837158
				}
			},
			"name":"mat8",
			"pbrMetallicRoughness":{
				"baseColorTexture":{
					"index":8
				},
				"metallicFactor":0,
				"roughnessFactor":0.9505894184112549
			}
		},
		{
			"doubleSided":true,
			"extensions":{
				"KHR_materials_specular":{
					"specularColorFactor":[
						2.371357614441398,
						2.371357614441398,
						2.371357614441398
					]
				},
				"KHR_materials_ior":{
					"ior":1.4500000476837158
				}
			},
			"name":"mat9",
			"pbrMetallicRoughness":{
				"baseColorTexture":{
					"index":9
				},
				"metallicFactor":0,
				"roughnessFactor":0.9505894184112549
			}
		},
		{
			"doubleSided":true,
			"extensions":{
				"KHR_materials_specular":{
					"specularColorFactor":[
						2.371357614441398,
						2.371357614441398,
						2.371357614441398
					]
				},
				"KHR_materials_ior":{
					"ior":1.4500000476837158
				}
			},
			"name":"mat10",
			"pbrMetallicRoughness":{
				"baseColorTexture":{
					"index":10
				},
				"metallicFactor":0,
				"roughnessFactor":0.9505894184112549
			}
		},
		{
			"doubleSided":true,
			"extensions":{
				"KHR_materials_specular":{
					"specularColorFactor":[
						2.371357614441398,
						2.371357614441398,
						2.371357614441398
					]
				},
				"KHR_materials_ior":{
					"ior":1.4500000476837158
				}
			},
			"name":"mat11",
			"pbrMetallicRoughness":{
				"baseColorTexture":{
					"index":11
				},
				"metallicFactor":0,
				"roughnessFactor":0.9505894184112549
			}
		}
	],
	"meshes":[
		{
			"name":"RZ_exit1_gatea",
			"primitives":[
				{
					"attributes":{
						"POSITION":0,
						"TEXCOORD_0":1,
						"NORMAL":2
					},
					"indices":3,
					"material":0
				},
				{
					"attributes":{
						"POSITION":4,
						"TEXCOORD_0":5,
						"NORMAL":6
					},
					"indices":7,
					"material":1
				},
				{
					"attributes":{
						"POSITION":8,
						"TEXCOORD_0":9,
						"NORMAL":10
					},
					"indices":11,
					"material":2
				},
				{
					"attributes":{
						"POSITION":12,
						"TEXCOORD_0":13,
						"NORMAL":14
					},
					"indices":15,
					"material":3
				},
				{
					"attributes":{
						"POSITION":16,
						"TEXCOORD_0":17,
						"NORMAL":18
					},
					"indices":19,
					"material":4
				},
				{
					"attributes":{
						"POSITION":20,
						"TEXCOORD_0":21,
						"NORMAL":22
					},
					"indices":23,
					"material":5
				},
				{
					"attributes":{
						"POSITION":24,
						"TEXCOORD_0":25,
						"NORMAL":26
					},
					"indices":27,
					"material":6
				},
				{
					"attributes":{
						"POSITION":28,
						"TEXCOORD_0":29,
						"NORMAL":30
					},
					"indices":31,
					"material":7
				},
				{
					"attributes":{
						"POSITION":32,
						"TEXCOORD_0":33,
						"NORMAL":34
					},
					"indices":35,
					"material":8
				},
				{
					"attributes":{
						"POSITION":36,
						"TEXCOORD_0":37,
						"NORMAL":38
					},
					"indices":35,
					"material":9
				},
				{
					"attributes":{
						"POSITION":39,
						"TEXCOORD_0":40,
						"NORMAL":41
					},
					"indices":42,
					"material":10
				},
				{
					"attributes":{
						"POSITION":43,
						"TEXCOORD_0":44,
						"NORMAL":45
					},
					"indices":11,
					"material":11
				}
			]
		}
	],
	"textures":[
		{
			"sampler":0,
			"source":0
		},
		{
			"sampler":0,
			"source":1
		},
		{
			"sampler":0,
			"source":2
		},
		{
			"sampler":0,
			"source":3
		},
		{
			"sampler":0,
			"source":4
		},
		{
			"sampler":0,
			"source":5
		},
		{
			"sampler":0,
			"source":6
		},
		{
			"sampler":0,
			"source":7
		},
		{
			"sampler":0,
			"source":8
		},
		{
			"sampler":0,
			"source":9
		},
		{
			"sampler":0,
			"source":10
		},
		{
			"sampler":0,
			"source":11
		}
	],
	"images":[
		{
			"mimeType":"image/jpeg",
			"name":"dirtymetal",
			"uri":"dirtymetal.jpg"
		},
		{
			"mimeType":"image/jpeg",
			"name":"tilefloor",
			"uri":"tilefloor.jpg"
		},
		{
			"mimeType":"image/jpeg",
			"name":"metal3",
			"uri":"metal3.jpg"
		},
		{
			"mimeType":"image/jpeg",
			"name":"officewall",
			"uri":"officewall.jpg"
		},
		{
			"mimeType":"image/jpeg",
			"name":"concretefloor",
			"uri":"concretefloor.jpg"
		},
		{
			"mimeType":"image/jpeg",
			"name":"metal",
			"uri":"metal.jpg"
		},
		{
			"mimeType":"image/jpeg",
			"name":"metalpanels2",
			"uri":"metalpanels2.jpg"
		},
		{
			"mimeType":"image/jpeg",
			"name":"misc",
			"uri":"misc.jpg"
		},
		{
			"mimeType":"image/jpeg",
			"name":"miscsigns2",
			"uri":"miscsigns2.jpg"
		},
		{
			"mimeType":"image/jpeg",
			"name":"scplogo",
			"uri":"scplogo.jpg"
		},
		{
			"mimeType":"image/jpeg",
			"name":"white",
			"uri":"white.jpg"
		},
		{
			"mimeType":"image/png",
			"name":"ctconcretewalls",
			"uri":"ctconcretewalls.png"
		}
	],
	"accessors":[
		{
			"bufferView":0,
			"componentType":5126,
			"count":3777,
			"max":[
				13.279999732971191,
				13.28000259399414,
				9.920001029968262
			],
			"min":[
				-7.119999885559082,
				-6.234250804482144e-07,
				-12.400001525878906
			],
			"type":"VEC3"
		},
		{
			"bufferView":1,
			"componentType":5126,
			"count":3777,
			"type":"VEC2"
		},
		{
			"bufferView":2,
			"componentType":5126,
			"count":3777,
			"type":"VEC3"
		},
		{
			"bufferView":3,
			"componentType":5123,
			"count":5784,
			"type":"SCALAR"
		},
		{
			"bufferView":4,
			"componentType":5126,
			"count":40,
			"max":[
				7.360000133514404,
				5.048192406320595e-07,
				10.23859691619873
			],
			"min":[
				-7.199999809265137,
				-0.010000430978834629,
				-11.20000171661377
			],
			"type":"VEC3"
		},
		{
			"bufferView":5,
			"componentType":5126,
			"count":40,
			"type":"VEC2"
		},
		{
			"bufferView":6,
			"componentType":5126,
			"count":40,
			"type":"VEC3"
		},
		{
			"bufferView":7,
			"componentType":5123,
			"count":60,
			"type":"SCALAR"
		},
		{
			"bufferView":8,
			"componentType":5126,
			"count":16,
			"max":[
				13.59999942779541,
				2.7946640557274804e-07,
				-2.080000162124634
			],
			"min":[
				7.360000133514404,
				-0.31999996304512024,
				-8.000000953674316
			],
			"type":"VEC3"
		},
		{
			"bufferView":9,
			"componentType":5126,
			"count":16,
			"type":"VEC2"
		},
		{
			"bufferView":10,
			"componentType":5126,
			"count":16,
			"type":"VEC3"
		},
		{
			"bufferView":11,
			"componentType":5123,
			"count":24,
			"type":"SCALAR"
		},
		{
			"bufferView":12,
			"componentType":5126,
			"count":868,
			"max":[
				7.360000133514404,
				7.040001392364502,
				10.24000072479248
			],
			"min":[
				-7.199999809265137,
				-8.813943281893444e-07,
				-11.200000762939453
			],
			"type":"VEC3"
		},
		{
			"bufferView":13,
			"componentType":5126,
			"count":868,
			"type":"VEC2"
		},
		{
			"bufferView":14,
			"componentType":5126,
			"count":868,
			"type":"VEC3"
		},
		{
			"bufferView":15,
			"componentType":5123,
			"count":1302,
			"type":"SCALAR"
		},
		{
			"bufferView":16,
			"componentType":5126,
			"count":232,
			"max":[
				13.279999732971191,
				13.28000259399414,
				10.24000072479248
			],
			"min":[
				-7.199999809265137,
				5.337335551303113e-08,
				-11.200000762939453
			],
			"type":"VEC3"
		},
		{
			"bufferView":17,
			"componentType":5126,
			"count":232,
			"type":"VEC2"
		},
		{
			"bufferView":18,
			"componentType":5126,
			"count":232,
			"type":"VEC3"
		},
		{
			"bufferView":19,
			"componentType":5123,
			"count":342,
			"type":"SCALAR"
		},
		{
			"bufferView":20,
			"componentType":5126,
			"count":60,
			"max":[
				13.59999942779541,
				5.120000839233398,
				-2.0799994468688965
			],
			"min":[
				7.360000133514404,
				5.337335551303113e-08,
				-8.160000801086426
			],
			"type":"VEC3"
		},
		{
			"bufferView":21,
			"componentType":5126,
			"count":60,
			"type":"VEC2"
		},
		{
			"bufferView":22,
			"componentType":5126,
			"count":60,
			"type":"VEC3"
		},
		{
			"bufferView":23,
			"componentType":5123,
			"count":90,
			"type":"SCALAR"
		},
		{
			"bufferView":24,
			"componentType":5126,
			"count":772,
			"max":[
				6.880000114440918,
				5.440001487731934,
				10.24000072479248
			],
			"min":[
				-7.199999809265137,
				3.499999523162842,
				-10.24000072479248
			],
			"type":"VEC3"
		},
		{
			"bufferView":25,
			"componentType":5126,
			"count":772,
			"type":"VEC2"
		},
		{
			"bufferView":26,
			"componentType":5126,
			"count":772,
			"type":"VEC3"
		},
		{
			"bufferView":27,
			"componentType":5123,
			"count":1152,
			"type":"SCALAR"
		},
		{
			"bufferView":28,
			"componentType":5126,
			"count":96,
			"max":[
				10.719999313354492,
				9.468682289123535,
				7.880001068115234
			],
			"min":[
				-2.0495619773864746,
				4.759999752044678,
				-5.320000171661377
			],
			"type":"VEC3"
		},
		{
			"bufferView":29,
			"componentType":5126,
			"count":96,
			"type":"VEC2"
		},
		{
			"bufferView":30,
			"componentType":5126,
			"count":96,
			"type":"VEC3"
		},
		{
			"bufferView":31,
			"componentType":5123,
			"count":144,
			"type":"SCALAR"
		},
		{
			"bufferView":32,
			"componentType":5126,
			"count":8,
			"max":[
				3.259999990463257,
				6.5636372566223145,
				4.820000648498535
			],
			"min":[
				-3.262355089187622,
				4.640000820159912,
				-10.220000267028809
			],
			"type":"VEC3"
		},
		{
			"bufferView":33,
			"componentType":5126,
			"count":8,
			"type":"VEC2"
		},
		{
			"bufferView":34,
			"componentType":5126,
			"count":8,
			"type":"VEC3"
		},
		{
			"bufferView":35,
			"componentType":5123,
			"count":12,
			"type":"SCALAR"
		},
		{
			"bufferView":36,
			"componentType":5126,
			"count":8,
			"max":[
				3.259999990463257,
				6.5636372566223145,
				4.789846420288086
			],
			"min":[
				-3.262355089187622,
				4.640000820159912,
				-10.248592376708984
			],
			"type":"VEC3"
		},
		{
			"bufferView":37,
			"componentType":5126,
			"count":8,
			"type":"VEC2"
		},
		{
			"bufferView":38,
			"componentType":5126,
			"count":8,
			"type":"VEC3"
		},
		{
			"bufferView":39,
			"componentType":5126,
			"count":20,
			"max":[
				4.888893127441406,
				7.040000915527344,
				7.84000301361084
			],
			"min":[
				-7.128893852233887,
				3.5199995040893555,
				-8.640002250671387
			],
			"type":"VEC3"
		},
		{
			"bufferView":40,
			"componentType":5126,
			"count":20,
			"type":"VEC2"
		},
		{
			"bufferView":41,
			"componentType":5126,
			"count":20,
			"type":"VEC3"
		},
		{
			"bufferView":42,
			"componentType":5123,
			"count":30,
			"type":"SCALAR"
		},
		{
			"bufferView":43,
			"componentType":5126,
			"count":16,
			"max":[
				2.240000009536743,
				13.440001487731934,
				-2.239999294281006
			],
			"min":[
				-2.240000009536743,
				13.280001640319824,
				-6.559999942779541
			],
			"type":"VEC3"
		},
		{
			"bufferView":44,
			"componentType":5126,
			"count":16,
			"type":"VEC2"
		},
		{
			"bufferView":45,
			"componentType":5126,
			"count":16,
			"type":"VEC3"
		}
	],
	"bufferViews":[
		{
			"buffer":0,
			"byteLength":45324,
			"byteOffset":0,
			"target":34962
		},
		{
			"buffer":0,
			"byteLength":30216,
			"byteOffset":45324,
			"target":34962
		},
		{
			"buffer":0,
			"byteLength":45324,
			"byteOffset":75540,
			"target":34962
		},
		{
			"buffer":0,
			"byteLength":11568,
			"byteOffset":120864,
			"target":34963
		},
		{
			"buffer":0,
			"byteLength":480,
			"byteOffset":132432,
			"target":34962
		},
		{
			"buffer":0,
			"byteLength":320,
			"byteOffset":132912,
			"target":34962
		},
		{
			"buffer":0,
			"byteLength":480,
			"byteOffset":133232,
			"target":34962
		},
		{
			"buffer":0,
			"byteLength":120,
			"byteOffset":133712,
			"target":34963
		},
		{
			"buffer":0,
			"byteLength":192,
			"byteOffset":133832,
			"target":34962
		},
		{
			"buffer":0,
			"byteLength":128,
			"byteOffset":134024,
			"target":34962
		},
		{
			"buffer":0,
			"byteLength":192,
			"byteOffset":134152,
			"target":34962
		},
		{
			"buffer":0,
			"byteLength":48,
			"byteOffset":134344,
			"target":34963
		},
		{
			"buffer":0,
			"byteLength":10416,
			"byteOffset":134392,
			"target":34962
		},
		{
			"buffer":0,
			"byteLength":6944,
			"byteOffset":144808,
			"target":34962
		},
		{
			"buffer":0,
			"byteLength":10416,
			"byteOffset":151752,
			"target":34962
		},
		{
			"buffer":0,
			"byteLength":2604,
			"byteOffset":162168,
			"target":34963
		},
		{
			"buffer":0,
			"byteLength":2784,
			"byteOffset":164772,
			"target":34962
		},
		{
			"buffer":0,
			"byteLength":1856,
			"byteOffset":167556,
			"target":34962
		},
		{
			"buffer":0,
			"byteLength":2784,
			"byteOffset":169412,
			"target":34962
		},
		{
			"buffer":0,
			"byteLength":684,
			"byteOffset":172196,
			"target":34963
		},
		{
			"buffer":0,
			"byteLength":720,
			"byteOffset":172880,
			"target":34962
		},
		{
			"buffer":0,
			"byteLength":480,
			"byteOffset":173600,
			"target":34962
		},
		{
			"buffer":0,
			"byteLength":720,
			"byteOffset":174080,
			"target":34962
		},
		{
			"buffer":0,
			"byteLength":180,
			"byteOffset":174800,
			"target":34963
		},
		{
			"buffer":0,
			"byteLength":9264,
			"byteOffset":174980,
			"target":34962
		},
		{
			"buffer":0,
			"byteLength":6176,
			"byteOffset":184244,
			"target":34962
		},
		{
			"buffer":0,
			"byteLength":9264,
			"byteOffset":190420,
			"target":34962
		},
		{
			"buffer":0,
			"byteLength":2304,
			"byteOffset":199684,
			"target":34963
		},
		{
			"buffer":0,
			"byteLength":1152,
			"byteOffset":201988,
			"target":34962
		},
		{
			"buffer":0,
			"byteLength":768,
			"byteOffset":203140,
			"target":34962
		},
		{
			"buffer":0,
			"byteLength":1152,
			"byteOffset":203908,
			"target":34962
		},
		{
			"buffer":0,
			"byteLength":288,
			"byteOffset":205060,
			"target":34963
		},
		{
			"buffer":0,
			"byteLength":96,
			"byteOffset":205348,
			"target":34962
		},
		{
			"buffer":0,
			"byteLength":64,
			"byteOffset":205444,
			"target":34962
		},
		{
			"buffer":0,
			"byteLength":96,
			"byteOffset":205508,
			"target":34962
		},
		{
			"buffer":0,
			"byteLength":24,
			"byteOffset":205604,
			"target":34963
		},
		{
			"buffer":0,
			"byteLength":96,
			"byteOffset":205628,
			"target":34962
		},
		{
			"buffer":0,
			"byteLength":64,
			"byteOffset":205724,
			"target":34962
		},
		{
			"buffer":0,
			"byteLength":96,
			"byteOffset":205788,
			"target":34962
		},
		{
			"buffer":0,
			"byteLength":240,
			"byteOffset":205884,
			"target":34962
		},
		{
			"buffer":0,
			"byteLength":160,
			"byteOffset":206124,
			"target":34962
		},
		{
			"buffer":0,
			"byteLength":240,
			"byteOffset":206284,
			"target":34962
		},
		{
			"buffer":0,
			"byteLength":60,
			"byteOffset":206524,
			"target":34963
		},
		{
			"buffer":0,
			"byteLength":192,
			"byteOffset":206584,
			"target":34962
		},
		{
			"buffer":0,
			"byteLength":128,
			"byteOffset":206776,
			"target":34962
		},
		{
			"buffer":0,
			"byteLength":192,
			"byteOffset":206904,
			"target":34962
		}
	],
	"samplers":[
		{
			"magFilter":9729,
			"minFilter":9987
		}
	],
	"buffers":[
		{
			"byteLength":207096,
			"uri":"RZ_exit1_gatea.bin"
		}
	]
}
