{
	"asset":{
		"generator":"Khronos glTF Blender I/O v3.5.30",
		"version":"2.0"
	},
	"extensionsUsed":[
		"KHR_materials_specular",
		"KHR_materials_ior"
	],
	"scene":0,
	"scenes":[
		{
			"name":"Scene",
			"nodes":[
				0
			]
		}
	],
	"nodes":[
		{
			"mesh":0,
			"name":"RZ_room2C"
		}
	],
	"materials":[
		{
			"doubleSided":true,
			"extensions":{
				"KHR_materials_specular":{
					"specularColorFactor":[
						2.371357614441398,
						2.371357614441398,
						2.371357614441398
					]
				},
				"KHR_materials_ior":{
					"ior":1.4500000476837158
				}
			},
			"name":"mat0.002",
			"pbrMetallicRoughness":{
				"baseColorTexture":{
					"index":0
				},
				"metallicFactor":0
			}
		},
		{
			"doubleSided":true,
			"extensions":{
				"KHR_materials_specular":{
					"specularColorFactor":[
						2.371357614441398,
						2.371357614441398,
						2.371357614441398
					]
				},
				"KHR_materials_ior":{
					"ior":1.4500000476837158
				}
			},
			"name":"mat1.002",
			"pbrMetallicRoughness":{
				"baseColorTexture":{
					"index":1
				},
				"metallicFactor":0
			}
		},
		{
			"doubleSided":true,
			"extensions":{
				"KHR_materials_specular":{
					"specularColorFactor":[
						2.371357614441398,
						2.371357614441398,
						2.371357614441398
					]
				},
				"KHR_materials_ior":{
					"ior":1.4500000476837158
				}
			},
			"name":"mat2.002",
			"pbrMetallicRoughness":{
				"baseColorTexture":{
					"index":2
				},
				"metallicFactor":0
			}
		},
		{
			"doubleSided":true,
			"extensions":{
				"KHR_materials_specular":{
					"specularColorFactor":[
						2.371357614441398,
						2.371357614441398,
						2.371357614441398
					]
				},
				"KHR_materials_ior":{
					"ior":1.4500000476837158
				}
			},
			"name":"mat3.002",
			"pbrMetallicRoughness":{
				"baseColorTexture":{
					"index":3
				},
				"metallicFactor":0
			}
		},
		{
			"doubleSided":true,
			"extensions":{
				"KHR_materials_specular":{
					"specularColorFactor":[
						2.371357614441398,
						2.371357614441398,
						2.371357614441398
					]
				},
				"KHR_materials_ior":{
					"ior":1.4500000476837158
				}
			},
			"name":"mat4.002",
			"pbrMetallicRoughness":{
				"baseColorTexture":{
					"index":4
				},
				"metallicFactor":0
			}
		},
		{
			"doubleSided":true,
			"extensions":{
				"KHR_materials_specular":{
					"specularColorFactor":[
						2.371357614441398,
						2.371357614441398,
						2.371357614441398
					]
				},
				"KHR_materials_ior":{
					"ior":1.4500000476837158
				}
			},
			"name":"mat5.002",
			"pbrMetallicRoughness":{
				"baseColorTexture":{
					"index":5
				},
				"metallicFactor":0
			}
		},
		{
			"doubleSided":true,
			"extensions":{
				"KHR_materials_specular":{
					"specularColorFactor":[
						2.371357614441398,
						2.371357614441398,
						2.371357614441398
					]
				},
				"KHR_materials_ior":{
					"ior":1.4500000476837158
				}
			},
			"name":"mat6.002",
			"pbrMetallicRoughness":{
				"baseColorTexture":{
					"index":6
				},
				"metallicFactor":0
			}
		}
	],
	"meshes":[
		{
			"name":"OZ_room2C.001",
			"primitives":[
				{
					"attributes":{
						"POSITION":0,
						"TEXCOORD_0":1,
						"NORMAL":2
					},
					"indices":3,
					"material":0
				},
				{
					"attributes":{
						"POSITION":4,
						"TEXCOORD_0":5,
						"NORMAL":6
					},
					"indices":7,
					"material":1
				},
				{
					"attributes":{
						"POSITION":8,
						"TEXCOORD_0":9,
						"NORMAL":10
					},
					"indices":11,
					"material":2
				},
				{
					"attributes":{
						"POSITION":12,
						"TEXCOORD_0":13,
						"NORMAL":14
					},
					"indices":15,
					"material":3
				},
				{
					"attributes":{
						"POSITION":16,
						"TEXCOORD_0":17,
						"NORMAL":18
					},
					"indices":19,
					"material":4
				},
				{
					"attributes":{
						"POSITION":20,
						"TEXCOORD_0":21,
						"NORMAL":22
					},
					"indices":23,
					"material":5
				},
				{
					"attributes":{
						"POSITION":24,
						"TEXCOORD_0":25,
						"NORMAL":26
					},
					"indices":27,
					"material":6
				}
			]
		}
	],
	"textures":[
		{
			"sampler":0,
			"source":0
		},
		{
			"sampler":0,
			"source":1
		},
		{
			"sampler":0,
			"source":2
		},
		{
			"sampler":0,
			"source":3
		},
		{
			"sampler":0,
			"source":4
		},
		{
			"sampler":0,
			"source":5
		},
		{
			"sampler":0,
			"source":6
		}
	],
	"images":[
		{
			"mimeType":"image/jpeg",
			"name":"officewall",
			"uri":"officewall.jpg"
		},
		{
			"mimeType":"image/jpeg",
			"name":"ceiling",
			"uri":"ceiling.jpg"
		},
		{
			"mimeType":"image/jpeg",
			"name":"misc",
			"uri":"misc.jpg"
		},
		{
			"mimeType":"image/jpeg",
			"name":"tilefloor",
			"uri":"tilefloor.jpg"
		},
		{
			"mimeType":"image/jpeg",
			"name":"dirtymetal",
			"uri":"dirtymetal.jpg"
		},
		{
			"mimeType":"image/jpeg",
			"name":"metal",
			"uri":"metal.jpg"
		},
		{
			"mimeType":"image/jpeg",
			"name":"metalpanels",
			"uri":"metalpanels.jpg"
		}
	],
	"accessors":[
		{
			"bufferView":0,
			"componentType":5126,
			"count":92,
			"max":[
				10.239999771118164,
				3.840001344680786,
				10.239999771118164
			],
			"min":[
				-5.759999752044678,
				-5.89291516917001e-07,
				-5.760000705718994
			],
			"type":"VEC3"
		},
		{
			"bufferView":1,
			"componentType":5126,
			"count":92,
			"type":"VEC2"
		},
		{
			"bufferView":2,
			"componentType":5126,
			"count":92,
			"type":"VEC3"
		},
		{
			"bufferView":3,
			"componentType":5123,
			"count":138,
			"type":"SCALAR"
		},
		{
			"bufferView":4,
			"componentType":5126,
			"count":44,
			"max":[
				10.239999771118164,
				4.160000324249268,
				10.239999771118164
			],
			"min":[
				-5.759999752044678,
				3.839999198913574,
				-2.5600016117095947
			],
			"type":"VEC3"
		},
		{
			"bufferView":5,
			"componentType":5126,
			"count":44,
			"type":"VEC2"
		},
		{
			"bufferView":6,
			"componentType":5126,
			"count":44,
			"type":"VEC3"
		},
		{
			"bufferView":7,
			"componentType":5123,
			"count":66,
			"type":"SCALAR"
		},
		{
			"bufferView":8,
			"componentType":5126,
			"count":40,
			"max":[
				10.239999771118164,
				4.160000324249268,
				10.239998817443848
			],
			"min":[
				-4.079999923706055,
				3.790440320968628,
				-4.089561939239502
			],
			"type":"VEC3"
		},
		{
			"bufferView":9,
			"componentType":5126,
			"count":40,
			"type":"VEC2"
		},
		{
			"bufferView":10,
			"componentType":5126,
			"count":40,
			"type":"VEC3"
		},
		{
			"bufferView":11,
			"componentType":5123,
			"count":60,
			"type":"SCALAR"
		},
		{
			"bufferView":12,
			"componentType":5126,
			"count":24,
			"max":[
				10.24000072479248,
				1.226901531481417e-06,
				10.24000072479248
			],
			"min":[
				-5.760000705718994,
				-0.010000565089285374,
				-5.760001182556152
			],
			"type":"VEC3"
		},
		{
			"bufferView":13,
			"componentType":5126,
			"count":24,
			"type":"VEC2"
		},
		{
			"bufferView":14,
			"componentType":5126,
			"count":24,
			"type":"VEC3"
		},
		{
			"bufferView":15,
			"componentType":5123,
			"count":36,
			"type":"SCALAR"
		},
		{
			"bufferView":16,
			"componentType":5126,
			"count":88,
			"max":[
				3.6000001430511475,
				3.8399996757507324,
				3.59999942779541
			],
			"min":[
				-4.079999923706055,
				3.790440320968628,
				-4.089561939239502
			],
			"type":"VEC3"
		},
		{
			"bufferView":17,
			"componentType":5126,
			"count":88,
			"type":"VEC2"
		},
		{
			"bufferView":18,
			"componentType":5126,
			"count":88,
			"type":"VEC3"
		},
		{
			"bufferView":19,
			"componentType":5123,
			"count":132,
			"type":"SCALAR"
		},
		{
			"bufferView":20,
			"componentType":5126,
			"count":488,
			"max":[
				3.5200002193450928,
				3.8399996757507324,
				3.5199997425079346
			],
			"min":[
				-5.760000705718994,
				-6.466698323492892e-07,
				-5.760000228881836
			],
			"type":"VEC3"
		},
		{
			"bufferView":21,
			"componentType":5126,
			"count":488,
			"type":"VEC2"
		},
		{
			"bufferView":22,
			"componentType":5126,
			"count":488,
			"type":"VEC3"
		},
		{
			"bufferView":23,
			"componentType":5123,
			"count":726,
			"type":"SCALAR"
		},
		{
			"bufferView":24,
			"componentType":5126,
			"count":432,
			"max":[
				2.059999465942383,
				1.2211449146270752,
				2.2250003814697266
			],
			"min":[
				-5.375916004180908,
				0.6999993324279785,
				-5.370916843414307
			],
			"type":"VEC3"
		},
		{
			"bufferView":25,
			"componentType":5126,
			"count":432,
			"type":"VEC2"
		},
		{
			"bufferView":26,
			"componentType":5126,
			"count":432,
			"type":"VEC3"
		},
		{
			"bufferView":27,
			"componentType":5123,
			"count":648,
			"type":"SCALAR"
		}
	],
	"bufferViews":[
		{
			"buffer":0,
			"byteLength":1104,
			"byteOffset":0,
			"target":34962
		},
		{
			"buffer":0,
			"byteLength":736,
			"byteOffset":1104,
			"target":34962
		},
		{
			"buffer":0,
			"byteLength":1104,
			"byteOffset":1840,
			"target":34962
		},
		{
			"buffer":0,
			"byteLength":276,
			"byteOffset":2944,
			"target":34963
		},
		{
			"buffer":0,
			"byteLength":528,
			"byteOffset":3220,
			"target":34962
		},
		{
			"buffer":0,
			"byteLength":352,
			"byteOffset":3748,
			"target":34962
		},
		{
			"buffer":0,
			"byteLength":528,
			"byteOffset":4100,
			"target":34962
		},
		{
			"buffer":0,
			"byteLength":132,
			"byteOffset":4628,
			"target":34963
		},
		{
			"buffer":0,
			"byteLength":480,
			"byteOffset":4760,
			"target":34962
		},
		{
			"buffer":0,
			"byteLength":320,
			"byteOffset":5240,
			"target":34962
		},
		{
			"buffer":0,
			"byteLength":480,
			"byteOffset":5560,
			"target":34962
		},
		{
			"buffer":0,
			"byteLength":120,
			"byteOffset":6040,
			"target":34963
		},
		{
			"buffer":0,
			"byteLength":288,
			"byteOffset":6160,
			"target":34962
		},
		{
			"buffer":0,
			"byteLength":192,
			"byteOffset":6448,
			"target":34962
		},
		{
			"buffer":0,
			"byteLength":288,
			"byteOffset":6640,
			"target":34962
		},
		{
			"buffer":0,
			"byteLength":72,
			"byteOffset":6928,
			"target":34963
		},
		{
			"buffer":0,
			"byteLength":1056,
			"byteOffset":7000,
			"target":34962
		},
		{
			"buffer":0,
			"byteLength":704,
			"byteOffset":8056,
			"target":34962
		},
		{
			"buffer":0,
			"byteLength":1056,
			"byteOffset":8760,
			"target":34962
		},
		{
			"buffer":0,
			"byteLength":264,
			"byteOffset":9816,
			"target":34963
		},
		{
			"buffer":0,
			"byteLength":5856,
			"byteOffset":10080,
			"target":34962
		},
		{
			"buffer":0,
			"byteLength":3904,
			"byteOffset":15936,
			"target":34962
		},
		{
			"buffer":0,
			"byteLength":5856,
			"byteOffset":19840,
			"target":34962
		},
		{
			"buffer":0,
			"byteLength":1452,
			"byteOffset":25696,
			"target":34963
		},
		{
			"buffer":0,
			"byteLength":5184,
			"byteOffset":27148,
			"target":34962
		},
		{
			"buffer":0,
			"byteLength":3456,
			"byteOffset":32332,
			"target":34962
		},
		{
			"buffer":0,
			"byteLength":5184,
			"byteOffset":35788,
			"target":34962
		},
		{
			"buffer":0,
			"byteLength":1296,
			"byteOffset":40972,
			"target":34963
		}
	],
	"samplers":[
		{
			"magFilter":9729,
			"minFilter":9987
		}
	],
	"buffers":[
		{
			"byteLength":42268,
			"uri":"RZ_room2C.bin"
		}
	]
}
