{
	"asset":{
		"generator":"Khronos glTF Blender I/O v3.5.30",
		"version":"2.0"
	},
	"extensionsUsed":[
		"KHR_materials_specular",
		"KHR_materials_ior"
	],
	"scene":0,
	"scenes":[
		{
			"name":"Scene",
			"nodes":[
				0
			]
		}
	],
	"nodes":[
		{
			"mesh":0,
			"name":"RZ_room2"
		}
	],
	"materials":[
		{
			"doubleSided":true,
			"extensions":{
				"KHR_materials_specular":{
					"specularColorFactor":[
						2.371357614441398,
						2.371357614441398,
						2.371357614441398
					]
				},
				"KHR_materials_ior":{
					"ior":1.4500000476837158
				}
			},
			"name":"mat0.005",
			"pbrMetallicRoughness":{
				"baseColorTexture":{
					"index":0
				},
				"metallicFactor":0
			}
		},
		{
			"doubleSided":true,
			"extensions":{
				"KHR_materials_specular":{
					"specularColorFactor":[
						2.371357614441398,
						2.371357614441398,
						2.371357614441398
					]
				},
				"KHR_materials_ior":{
					"ior":1.4500000476837158
				}
			},
			"name":"mat1.005",
			"pbrMetallicRoughness":{
				"baseColorTexture":{
					"index":1
				},
				"metallicFactor":0
			}
		},
		{
			"doubleSided":true,
			"extensions":{
				"KHR_materials_specular":{
					"specularColorFactor":[
						2.371357614441398,
						2.371357614441398,
						2.371357614441398
					]
				},
				"KHR_materials_ior":{
					"ior":1.4500000476837158
				}
			},
			"name":"mat2.005",
			"pbrMetallicRoughness":{
				"baseColorTexture":{
					"index":2
				},
				"metallicFactor":0
			}
		},
		{
			"doubleSided":true,
			"extensions":{
				"KHR_materials_specular":{
					"specularColorFactor":[
						2.371357614441398,
						2.371357614441398,
						2.371357614441398
					]
				},
				"KHR_materials_ior":{
					"ior":1.4500000476837158
				}
			},
			"name":"mat3.005",
			"pbrMetallicRoughness":{
				"baseColorTexture":{
					"index":3
				},
				"metallicFactor":0
			}
		},
		{
			"doubleSided":true,
			"extensions":{
				"KHR_materials_specular":{
					"specularColorFactor":[
						2.371357614441398,
						2.371357614441398,
						2.371357614441398
					]
				},
				"KHR_materials_ior":{
					"ior":1.4500000476837158
				}
			},
			"name":"mat4.005",
			"pbrMetallicRoughness":{
				"baseColorTexture":{
					"index":4
				},
				"metallicFactor":0
			}
		},
		{
			"doubleSided":true,
			"extensions":{
				"KHR_materials_specular":{
					"specularColorFactor":[
						2.371357614441398,
						2.371357614441398,
						2.371357614441398
					]
				},
				"KHR_materials_ior":{
					"ior":1.4500000476837158
				}
			},
			"name":"mat5.005",
			"pbrMetallicRoughness":{
				"baseColorTexture":{
					"index":5
				},
				"metallicFactor":0
			}
		}
	],
	"meshes":[
		{
			"name":"OZ_room2.001",
			"primitives":[
				{
					"attributes":{
						"POSITION":0,
						"TEXCOORD_0":1,
						"NORMAL":2
					},
					"indices":3,
					"material":0
				},
				{
					"attributes":{
						"POSITION":4,
						"TEXCOORD_0":5,
						"NORMAL":6
					},
					"indices":7,
					"material":1
				},
				{
					"attributes":{
						"POSITION":8,
						"TEXCOORD_0":9,
						"NORMAL":10
					},
					"indices":11,
					"material":2
				},
				{
					"attributes":{
						"POSITION":12,
						"TEXCOORD_0":13,
						"NORMAL":14
					},
					"indices":15,
					"material":3
				},
				{
					"attributes":{
						"POSITION":16,
						"TEXCOORD_0":17,
						"NORMAL":18
					},
					"indices":19,
					"material":4
				},
				{
					"attributes":{
						"POSITION":20,
						"TEXCOORD_0":21,
						"NORMAL":22
					},
					"indices":23,
					"material":5
				}
			]
		}
	],
	"textures":[
		{
			"sampler":0,
			"source":0
		},
		{
			"sampler":0,
			"source":1
		},
		{
			"sampler":0,
			"source":2
		},
		{
			"sampler":0,
			"source":3
		},
		{
			"sampler":0,
			"source":4
		},
		{
			"sampler":0,
			"source":5
		}
	],
	"images":[
		{
			"mimeType":"image/jpeg",
			"name":"officewall",
			"uri":"officewall.jpg"
		},
		{
			"mimeType":"image/jpeg",
			"name":"ceiling",
			"uri":"ceiling.jpg"
		},
		{
			"mimeType":"image/jpeg",
			"name":"misc",
			"uri":"misc.jpg"
		},
		{
			"mimeType":"image/jpeg",
			"name":"tilefloor",
			"uri":"tilefloor.jpg"
		},
		{
			"mimeType":"image/jpeg",
			"name":"metal",
			"uri":"metal.jpg"
		},
		{
			"mimeType":"image/jpeg",
			"name":"metalpanels",
			"uri":"metalpanels.jpg"
		}
	],
	"accessors":[
		{
			"bufferView":0,
			"componentType":5126,
			"count":60,
			"max":[
				2.559999942779541,
				3.8400049209594727,
				10.240001678466797
			],
			"min":[
				-2.559999942779541,
				-5.102169780002441e-06,
				-10.239998817443848
			],
			"type":"VEC3"
		},
		{
			"bufferView":1,
			"componentType":5126,
			"count":60,
			"type":"VEC2"
		},
		{
			"bufferView":2,
			"componentType":5126,
			"count":60,
			"type":"VEC3"
		},
		{
			"bufferView":3,
			"componentType":5123,
			"count":90,
			"type":"SCALAR"
		},
		{
			"bufferView":4,
			"componentType":5126,
			"count":40,
			"max":[
				2.559999942779541,
				4.160002708435059,
				10.24000072479248
			],
			"min":[
				-2.559999942779541,
				3.8399946689605713,
				-10.239996910095215
			],
			"type":"VEC3"
		},
		{
			"bufferView":5,
			"componentType":5126,
			"count":40,
			"type":"VEC2"
		},
		{
			"bufferView":6,
			"componentType":5126,
			"count":40,
			"type":"VEC3"
		},
		{
			"bufferView":7,
			"componentType":5123,
			"count":60,
			"type":"SCALAR"
		},
		{
			"bufferView":8,
			"componentType":5126,
			"count":32,
			"max":[
				0.8399999737739563,
				4.160003185272217,
				10.24000072479248
			],
			"min":[
				-0.8399999737739563,
				3.8399946689605713,
				-9.919997215270996
			],
			"type":"VEC3"
		},
		{
			"bufferView":9,
			"componentType":5126,
			"count":32,
			"type":"VEC2"
		},
		{
			"bufferView":10,
			"componentType":5126,
			"count":32,
			"type":"VEC3"
		},
		{
			"bufferView":11,
			"componentType":5123,
			"count":48,
			"type":"SCALAR"
		},
		{
			"bufferView":12,
			"componentType":5126,
			"count":24,
			"max":[
				2.559999942779541,
				5.10216932525509e-06,
				10.239998817443848
			],
			"min":[
				-2.559999942779541,
				-0.010005101561546326,
				-10.239998817443848
			],
			"type":"VEC3"
		},
		{
			"bufferView":13,
			"componentType":5126,
			"count":24,
			"type":"VEC2"
		},
		{
			"bufferView":14,
			"componentType":5126,
			"count":24,
			"type":"VEC3"
		},
		{
			"bufferView":15,
			"componentType":5123,
			"count":36,
			"type":"SCALAR"
		},
		{
			"bufferView":16,
			"componentType":5126,
			"count":498,
			"max":[
				-1.475000023841858,
				1.2600048780441284,
				-4.694999694824219
			],
			"min":[
				-2.2049999237060547,
				2.422332727292087e-06,
				-9.874999046325684
			],
			"type":"VEC3"
		},
		{
			"bufferView":17,
			"componentType":5126,
			"count":498,
			"type":"VEC2"
		},
		{
			"bufferView":18,
			"componentType":5126,
			"count":498,
			"type":"VEC3"
		},
		{
			"bufferView":19,
			"componentType":5123,
			"count":720,
			"type":"SCALAR"
		},
		{
			"bufferView":20,
			"componentType":5126,
			"count":438,
			"max":[
				-1.5049999952316284,
				1.2211488485336304,
				-4.82499885559082
			],
			"min":[
				-2.175916910171509,
				0.7000024318695068,
				-9.744998931884766
			],
			"type":"VEC3"
		},
		{
			"bufferView":21,
			"componentType":5126,
			"count":438,
			"type":"VEC2"
		},
		{
			"bufferView":22,
			"componentType":5126,
			"count":438,
			"type":"VEC3"
		},
		{
			"bufferView":23,
			"componentType":5123,
			"count":648,
			"type":"SCALAR"
		}
	],
	"bufferViews":[
		{
			"buffer":0,
			"byteLength":720,
			"byteOffset":0,
			"target":34962
		},
		{
			"buffer":0,
			"byteLength":480,
			"byteOffset":720,
			"target":34962
		},
		{
			"buffer":0,
			"byteLength":720,
			"byteOffset":1200,
			"target":34962
		},
		{
			"buffer":0,
			"byteLength":180,
			"byteOffset":1920,
			"target":34963
		},
		{
			"buffer":0,
			"byteLength":480,
			"byteOffset":2100,
			"target":34962
		},
		{
			"buffer":0,
			"byteLength":320,
			"byteOffset":2580,
			"target":34962
		},
		{
			"buffer":0,
			"byteLength":480,
			"byteOffset":2900,
			"target":34962
		},
		{
			"buffer":0,
			"byteLength":120,
			"byteOffset":3380,
			"target":34963
		},
		{
			"buffer":0,
			"byteLength":384,
			"byteOffset":3500,
			"target":34962
		},
		{
			"buffer":0,
			"byteLength":256,
			"byteOffset":3884,
			"target":34962
		},
		{
			"buffer":0,
			"byteLength":384,
			"byteOffset":4140,
			"target":34962
		},
		{
			"buffer":0,
			"byteLength":96,
			"byteOffset":4524,
			"target":34963
		},
		{
			"buffer":0,
			"byteLength":288,
			"byteOffset":4620,
			"target":34962
		},
		{
			"buffer":0,
			"byteLength":192,
			"byteOffset":4908,
			"target":34962
		},
		{
			"buffer":0,
			"byteLength":288,
			"byteOffset":5100,
			"target":34962
		},
		{
			"buffer":0,
			"byteLength":72,
			"byteOffset":5388,
			"target":34963
		},
		{
			"buffer":0,
			"byteLength":5976,
			"byteOffset":5460,
			"target":34962
		},
		{
			"buffer":0,
			"byteLength":3984,
			"byteOffset":11436,
			"target":34962
		},
		{
			"buffer":0,
			"byteLength":5976,
			"byteOffset":15420,
			"target":34962
		},
		{
			"buffer":0,
			"byteLength":1440,
			"byteOffset":21396,
			"target":34963
		},
		{
			"buffer":0,
			"byteLength":5256,
			"byteOffset":22836,
			"target":34962
		},
		{
			"buffer":0,
			"byteLength":3504,
			"byteOffset":28092,
			"target":34962
		},
		{
			"buffer":0,
			"byteLength":5256,
			"byteOffset":31596,
			"target":34962
		},
		{
			"buffer":0,
			"byteLength":1296,
			"byteOffset":36852,
			"target":34963
		}
	],
	"samplers":[
		{
			"magFilter":9729,
			"minFilter":9987
		}
	],
	"buffers":[
		{
			"byteLength":38148,
			"uri":"RZ_room2.bin"
		}
	]
}
