{
	"asset":{
		"generator":"Khronos glTF Blender I/O v3.5.30",
		"version":"2.0"
	},
	"extensionsUsed":[
		"KHR_materials_specular",
		"KHR_materials_ior"
	],
	"scene":0,
	"scenes":[
		{
			"name":"Scene",
			"nodes":[
				0
			]
		}
	],
	"nodes":[
		{
			"mesh":0,
			"name":"RZ_room3"
		}
	],
	"materials":[
		{
			"doubleSided":true,
			"extensions":{
				"KHR_materials_specular":{
					"specularColorFactor":[
						2.371357614441398,
						2.371357614441398,
						2.371357614441398
					]
				},
				"KHR_materials_ior":{
					"ior":1.4500000476837158
				}
			},
			"name":"mat0.001",
			"pbrMetallicRoughness":{
				"baseColorTexture":{
					"index":0
				},
				"metallicFactor":0
			}
		},
		{
			"doubleSided":true,
			"extensions":{
				"KHR_materials_specular":{
					"specularColorFactor":[
						2.371357614441398,
						2.371357614441398,
						2.371357614441398
					]
				},
				"KHR_materials_ior":{
					"ior":1.4500000476837158
				}
			},
			"name":"mat1.001",
			"pbrMetallicRoughness":{
				"baseColorTexture":{
					"index":1
				},
				"metallicFactor":0
			}
		},
		{
			"doubleSided":true,
			"extensions":{
				"KHR_materials_specular":{
					"specularColorFactor":[
						2.371357614441398,
						2.371357614441398,
						2.371357614441398
					]
				},
				"KHR_materials_ior":{
					"ior":1.4500000476837158
				}
			},
			"name":"mat2.001",
			"pbrMetallicRoughness":{
				"baseColorTexture":{
					"index":2
				},
				"metallicFactor":0
			}
		},
		{
			"doubleSided":true,
			"extensions":{
				"KHR_materials_specular":{
					"specularColorFactor":[
						2.371357614441398,
						2.371357614441398,
						2.371357614441398
					]
				},
				"KHR_materials_ior":{
					"ior":1.4500000476837158
				}
			},
			"name":"mat3.001",
			"pbrMetallicRoughness":{
				"baseColorTexture":{
					"index":3
				},
				"metallicFactor":0
			}
		},
		{
			"doubleSided":true,
			"extensions":{
				"KHR_materials_specular":{
					"specularColorFactor":[
						2.371357614441398,
						2.371357614441398,
						2.371357614441398
					]
				},
				"KHR_materials_ior":{
					"ior":1.4500000476837158
				}
			},
			"name":"mat4.001",
			"pbrMetallicRoughness":{
				"baseColorTexture":{
					"index":4
				},
				"metallicFactor":0
			}
		},
		{
			"doubleSided":true,
			"extensions":{
				"KHR_materials_specular":{
					"specularColorFactor":[
						2.371357614441398,
						2.371357614441398,
						2.371357614441398
					]
				},
				"KHR_materials_ior":{
					"ior":1.4500000476837158
				}
			},
			"name":"mat5.003",
			"pbrMetallicRoughness":{
				"baseColorTexture":{
					"index":5
				},
				"metallicFactor":0
			}
		},
		{
			"doubleSided":true,
			"extensions":{
				"KHR_materials_specular":{
					"specularColorFactor":[
						2.371357614441398,
						2.371357614441398,
						2.371357614441398
					]
				},
				"KHR_materials_ior":{
					"ior":1.4500000476837158
				}
			},
			"name":"mat6.003",
			"pbrMetallicRoughness":{
				"baseColorTexture":{
					"index":6
				},
				"metallicFactor":0
			}
		}
	],
	"meshes":[
		{
			"name":"OZ_room3.001",
			"primitives":[
				{
					"attributes":{
						"POSITION":0,
						"TEXCOORD_0":1,
						"NORMAL":2
					},
					"indices":3,
					"material":0
				},
				{
					"attributes":{
						"POSITION":4,
						"TEXCOORD_0":5,
						"NORMAL":6
					},
					"indices":7,
					"material":1
				},
				{
					"attributes":{
						"POSITION":8,
						"TEXCOORD_0":9,
						"NORMAL":10
					},
					"indices":11,
					"material":2
				},
				{
					"attributes":{
						"POSITION":12,
						"TEXCOORD_0":13,
						"NORMAL":14
					},
					"indices":15,
					"material":3
				},
				{
					"attributes":{
						"POSITION":16,
						"TEXCOORD_0":17,
						"NORMAL":18
					},
					"indices":19,
					"material":4
				},
				{
					"attributes":{
						"POSITION":20,
						"TEXCOORD_0":21,
						"NORMAL":22
					},
					"indices":23,
					"material":5
				},
				{
					"attributes":{
						"POSITION":24,
						"TEXCOORD_0":25,
						"NORMAL":26
					},
					"indices":27,
					"material":6
				}
			]
		}
	],
	"textures":[
		{
			"sampler":0,
			"source":0
		},
		{
			"sampler":0,
			"source":1
		},
		{
			"sampler":0,
			"source":2
		},
		{
			"sampler":0,
			"source":3
		},
		{
			"sampler":0,
			"source":4
		},
		{
			"sampler":0,
			"source":5
		},
		{
			"sampler":0,
			"source":6
		}
	],
	"images":[
		{
			"mimeType":"image/jpeg",
			"name":"officewall",
			"uri":"officewall.jpg"
		},
		{
			"mimeType":"image/jpeg",
			"name":"ceiling",
			"uri":"ceiling.jpg"
		},
		{
			"mimeType":"image/jpeg",
			"name":"misc",
			"uri":"misc.jpg"
		},
		{
			"mimeType":"image/jpeg",
			"name":"tilefloor",
			"uri":"tilefloor.jpg"
		},
		{
			"mimeType":"image/jpeg",
			"name":"dirtymetal",
			"uri":"dirtymetal.jpg"
		},
		{
			"mimeType":"image/jpeg",
			"name":"metal",
			"uri":"metal.jpg"
		},
		{
			"mimeType":"image/jpeg",
			"name":"metalpanels",
			"uri":"metalpanels.jpg"
		}
	],
	"accessors":[
		{
			"bufferView":0,
			"componentType":5126,
			"count":116,
			"max":[
				10.239999771118164,
				3.8400025367736816,
				10.239999771118164
			],
			"min":[
				-10.239999771118164,
				-1.2517775758169591e-06,
				-5.760000705718994
			],
			"type":"VEC3"
		},
		{
			"bufferView":1,
			"componentType":5126,
			"count":116,
			"type":"VEC2"
		},
		{
			"bufferView":2,
			"componentType":5126,
			"count":116,
			"type":"VEC3"
		},
		{
			"bufferView":3,
			"componentType":5123,
			"count":174,
			"type":"SCALAR"
		},
		{
			"bufferView":4,
			"componentType":5126,
			"count":60,
			"max":[
				10.239999771118164,
				4.160001277923584,
				10.239998817443848
			],
			"min":[
				-10.239999771118164,
				3.839998960494995,
				-2.560001850128174
			],
			"type":"VEC3"
		},
		{
			"bufferView":5,
			"componentType":5126,
			"count":60,
			"type":"VEC2"
		},
		{
			"bufferView":6,
			"componentType":5126,
			"count":60,
			"type":"VEC3"
		},
		{
			"bufferView":7,
			"componentType":5123,
			"count":90,
			"type":"SCALAR"
		},
		{
			"bufferView":8,
			"componentType":5126,
			"count":52,
			"max":[
				10.239999771118164,
				4.160001277923584,
				10.239998817443848
			],
			"min":[
				-10.239999771118164,
				3.790440082550049,
				-2.4895613193511963
			],
			"type":"VEC3"
		},
		{
			"bufferView":9,
			"componentType":5126,
			"count":52,
			"type":"VEC2"
		},
		{
			"bufferView":10,
			"componentType":5126,
			"count":52,
			"type":"VEC3"
		},
		{
			"bufferView":11,
			"componentType":5123,
			"count":78,
			"type":"SCALAR"
		},
		{
			"bufferView":12,
			"componentType":5126,
			"count":4,
			"max":[
				10.24000072479248,
				2.447604629196576e-06,
				10.24000072479248
			],
			"min":[
				-10.24000072479248,
				-1.2517775758169591e-06,
				-5.760001182556152
			],
			"type":"VEC3"
		},
		{
			"bufferView":13,
			"componentType":5126,
			"count":4,
			"type":"VEC2"
		},
		{
			"bufferView":14,
			"componentType":5126,
			"count":4,
			"type":"VEC3"
		},
		{
			"bufferView":15,
			"componentType":5123,
			"count":6,
			"type":"SCALAR"
		},
		{
			"bufferView":16,
			"componentType":5126,
			"count":92,
			"max":[
				3.6000001430511475,
				3.8400001525878906,
				3.599998950958252
			],
			"min":[
				-3.6000001430511475,
				3.790440082550049,
				-2.4895613193511963
			],
			"type":"VEC3"
		},
		{
			"bufferView":17,
			"componentType":5126,
			"count":92,
			"type":"VEC2"
		},
		{
			"bufferView":18,
			"componentType":5126,
			"count":92,
			"type":"VEC3"
		},
		{
			"bufferView":19,
			"componentType":5123,
			"count":138,
			"type":"SCALAR"
		},
		{
			"bufferView":20,
			"componentType":5126,
			"count":490,
			"max":[
				3.5200002193450928,
				3.8400001525878906,
				3.5199992656707764
			],
			"min":[
				-3.520000457763672,
				-1.2325446050454048e-06,
				-5.760000705718994
			],
			"type":"VEC3"
		},
		{
			"bufferView":21,
			"componentType":5126,
			"count":490,
			"type":"VEC2"
		},
		{
			"bufferView":22,
			"componentType":5126,
			"count":490,
			"type":"VEC3"
		},
		{
			"bufferView":23,
			"componentType":5123,
			"count":726,
			"type":"SCALAR"
		},
		{
			"bufferView":24,
			"componentType":5126,
			"count":432,
			"max":[
				2.6999995708465576,
				1.2211427688598633,
				-4.699999809265137
			],
			"min":[
				-2.700000524520874,
				0.6999987363815308,
				-5.370915412902832
			],
			"type":"VEC3"
		},
		{
			"bufferView":25,
			"componentType":5126,
			"count":432,
			"type":"VEC2"
		},
		{
			"bufferView":26,
			"componentType":5126,
			"count":432,
			"type":"VEC3"
		},
		{
			"bufferView":27,
			"componentType":5123,
			"count":648,
			"type":"SCALAR"
		}
	],
	"bufferViews":[
		{
			"buffer":0,
			"byteLength":1392,
			"byteOffset":0,
			"target":34962
		},
		{
			"buffer":0,
			"byteLength":928,
			"byteOffset":1392,
			"target":34962
		},
		{
			"buffer":0,
			"byteLength":1392,
			"byteOffset":2320,
			"target":34962
		},
		{
			"buffer":0,
			"byteLength":348,
			"byteOffset":3712,
			"target":34963
		},
		{
			"buffer":0,
			"byteLength":720,
			"byteOffset":4060,
			"target":34962
		},
		{
			"buffer":0,
			"byteLength":480,
			"byteOffset":4780,
			"target":34962
		},
		{
			"buffer":0,
			"byteLength":720,
			"byteOffset":5260,
			"target":34962
		},
		{
			"buffer":0,
			"byteLength":180,
			"byteOffset":5980,
			"target":34963
		},
		{
			"buffer":0,
			"byteLength":624,
			"byteOffset":6160,
			"target":34962
		},
		{
			"buffer":0,
			"byteLength":416,
			"byteOffset":6784,
			"target":34962
		},
		{
			"buffer":0,
			"byteLength":624,
			"byteOffset":7200,
			"target":34962
		},
		{
			"buffer":0,
			"byteLength":156,
			"byteOffset":7824,
			"target":34963
		},
		{
			"buffer":0,
			"byteLength":48,
			"byteOffset":7980,
			"target":34962
		},
		{
			"buffer":0,
			"byteLength":32,
			"byteOffset":8028,
			"target":34962
		},
		{
			"buffer":0,
			"byteLength":48,
			"byteOffset":8060,
			"target":34962
		},
		{
			"buffer":0,
			"byteLength":12,
			"byteOffset":8108,
			"target":34963
		},
		{
			"buffer":0,
			"byteLength":1104,
			"byteOffset":8120,
			"target":34962
		},
		{
			"buffer":0,
			"byteLength":736,
			"byteOffset":9224,
			"target":34962
		},
		{
			"buffer":0,
			"byteLength":1104,
			"byteOffset":9960,
			"target":34962
		},
		{
			"buffer":0,
			"byteLength":276,
			"byteOffset":11064,
			"target":34963
		},
		{
			"buffer":0,
			"byteLength":5880,
			"byteOffset":11340,
			"target":34962
		},
		{
			"buffer":0,
			"byteLength":3920,
			"byteOffset":17220,
			"target":34962
		},
		{
			"buffer":0,
			"byteLength":5880,
			"byteOffset":21140,
			"target":34962
		},
		{
			"buffer":0,
			"byteLength":1452,
			"byteOffset":27020,
			"target":34963
		},
		{
			"buffer":0,
			"byteLength":5184,
			"byteOffset":28472,
			"target":34962
		},
		{
			"buffer":0,
			"byteLength":3456,
			"byteOffset":33656,
			"target":34962
		},
		{
			"buffer":0,
			"byteLength":5184,
			"byteOffset":37112,
			"target":34962
		},
		{
			"buffer":0,
			"byteLength":1296,
			"byteOffset":42296,
			"target":34963
		}
	],
	"samplers":[
		{
			"magFilter":9729,
			"minFilter":9987
		}
	],
	"buffers":[
		{
			"byteLength":43592,
			"uri":"RZ_room3.bin"
		}
	]
}
