{
	"asset":{
		"generator":"Khronos glTF Blender I/O v3.5.30",
		"version":"2.0"
	},
	"extensionsUsed":[
		"KHR_materials_specular",
		"KHR_materials_ior"
	],
	"scene":0,
	"scenes":[
		{
			"name":"Scene",
			"nodes":[
				0
			]
		}
	],
	"nodes":[
		{
			"mesh":0,
			"name":"RZ_room4"
		}
	],
	"materials":[
		{
			"doubleSided":true,
			"extensions":{
				"KHR_materials_specular":{
					"specularColorFactor":[
						2.371357614441398,
						2.371357614441398,
						2.371357614441398
					]
				},
				"KHR_materials_ior":{
					"ior":1.4500000476837158
				}
			},
			"name":"mat0",
			"pbrMetallicRoughness":{
				"baseColorTexture":{
					"index":0
				},
				"metallicFactor":0
			}
		},
		{
			"doubleSided":true,
			"extensions":{
				"KHR_materials_specular":{
					"specularColorFactor":[
						2.371357614441398,
						2.371357614441398,
						2.371357614441398
					]
				},
				"KHR_materials_ior":{
					"ior":1.4500000476837158
				}
			},
			"name":"mat1",
			"pbrMetallicRoughness":{
				"baseColorTexture":{
					"index":1
				},
				"metallicFactor":0
			}
		},
		{
			"doubleSided":true,
			"extensions":{
				"KHR_materials_specular":{
					"specularColorFactor":[
						2.371357614441398,
						2.371357614441398,
						2.371357614441398
					]
				},
				"KHR_materials_ior":{
					"ior":1.4500000476837158
				}
			},
			"name":"mat2",
			"pbrMetallicRoughness":{
				"baseColorTexture":{
					"index":2
				},
				"metallicFactor":0
			}
		},
		{
			"doubleSided":true,
			"extensions":{
				"KHR_materials_specular":{
					"specularColorFactor":[
						2.371357614441398,
						2.371357614441398,
						2.371357614441398
					]
				},
				"KHR_materials_ior":{
					"ior":1.4500000476837158
				}
			},
			"name":"mat3",
			"pbrMetallicRoughness":{
				"baseColorTexture":{
					"index":3
				},
				"metallicFactor":0
			}
		},
		{
			"doubleSided":true,
			"extensions":{
				"KHR_materials_specular":{
					"specularColorFactor":[
						2.371357614441398,
						2.371357614441398,
						2.371357614441398
					]
				},
				"KHR_materials_ior":{
					"ior":1.4500000476837158
				}
			},
			"name":"mat4",
			"pbrMetallicRoughness":{
				"baseColorTexture":{
					"index":4
				},
				"metallicFactor":0
			}
		},
		{
			"doubleSided":true,
			"extensions":{
				"KHR_materials_specular":{
					"specularColorFactor":[
						2.371357614441398,
						2.371357614441398,
						2.371357614441398
					]
				},
				"KHR_materials_ior":{
					"ior":1.4500000476837158
				}
			},
			"name":"mat5",
			"pbrMetallicRoughness":{
				"baseColorTexture":{
					"index":5
				},
				"metallicFactor":0
			}
		},
		{
			"doubleSided":true,
			"extensions":{
				"KHR_materials_specular":{
					"specularColorFactor":[
						2.371357614441398,
						2.371357614441398,
						2.371357614441398
					]
				},
				"KHR_materials_ior":{
					"ior":1.4500000476837158
				}
			},
			"name":"mat6",
			"pbrMetallicRoughness":{
				"baseColorTexture":{
					"index":6
				},
				"metallicFactor":0
			}
		},
		{
			"doubleSided":true,
			"extensions":{
				"KHR_materials_specular":{
					"specularColorFactor":[
						2.371357614441398,
						2.371357614441398,
						2.371357614441398
					]
				},
				"KHR_materials_ior":{
					"ior":1.4500000476837158
				}
			},
			"name":"mat7",
			"pbrMetallicRoughness":{
				"baseColorTexture":{
					"index":7
				},
				"metallicFactor":0
			}
		},
		{
			"doubleSided":true,
			"extensions":{
				"KHR_materials_specular":{
					"specularColorFactor":[
						2.371357614441398,
						2.371357614441398,
						2.371357614441398
					]
				},
				"KHR_materials_ior":{
					"ior":1.4500000476837158
				}
			},
			"name":"mat8",
			"pbrMetallicRoughness":{
				"baseColorTexture":{
					"index":8
				},
				"metallicFactor":0
			}
		},
		{
			"doubleSided":true,
			"extensions":{
				"KHR_materials_specular":{
					"specularColorFactor":[
						2.371357614441398,
						2.371357614441398,
						2.371357614441398
					]
				},
				"KHR_materials_ior":{
					"ior":1.4500000476837158
				}
			},
			"name":"mat9",
			"pbrMetallicRoughness":{
				"baseColorTexture":{
					"index":9
				},
				"metallicFactor":0
			}
		}
	],
	"meshes":[
		{
			"name":"OZ_room4",
			"primitives":[
				{
					"attributes":{
						"POSITION":0,
						"TEXCOORD_0":1,
						"NORMAL":2
					},
					"indices":3,
					"material":0
				},
				{
					"attributes":{
						"POSITION":4,
						"TEXCOORD_0":5,
						"NORMAL":6
					},
					"indices":7,
					"material":1
				},
				{
					"attributes":{
						"POSITION":8,
						"TEXCOORD_0":9,
						"NORMAL":10
					},
					"indices":11,
					"material":2
				},
				{
					"attributes":{
						"POSITION":12,
						"TEXCOORD_0":13,
						"NORMAL":14
					},
					"indices":15,
					"material":3
				},
				{
					"attributes":{
						"POSITION":16,
						"TEXCOORD_0":17,
						"NORMAL":18
					},
					"indices":19,
					"material":4
				},
				{
					"attributes":{
						"POSITION":20,
						"TEXCOORD_0":21,
						"NORMAL":22
					},
					"indices":23,
					"material":5
				},
				{
					"attributes":{
						"POSITION":24,
						"TEXCOORD_0":25,
						"NORMAL":26
					},
					"indices":27,
					"material":6
				},
				{
					"attributes":{
						"POSITION":28,
						"TEXCOORD_0":29,
						"NORMAL":30
					},
					"indices":31,
					"material":7
				},
				{
					"attributes":{
						"POSITION":32,
						"TEXCOORD_0":33,
						"NORMAL":34
					},
					"indices":35,
					"material":8
				},
				{
					"attributes":{
						"POSITION":36,
						"TEXCOORD_0":37,
						"NORMAL":38
					},
					"indices":15,
					"material":9
				}
			]
		}
	],
	"textures":[
		{
			"sampler":0,
			"source":0
		},
		{
			"sampler":0,
			"source":1
		},
		{
			"sampler":0,
			"source":2
		},
		{
			"sampler":0,
			"source":3
		},
		{
			"sampler":0,
			"source":4
		},
		{
			"sampler":0,
			"source":5
		},
		{
			"sampler":0,
			"source":6
		},
		{
			"sampler":0,
			"source":7
		},
		{
			"sampler":0,
			"source":8
		},
		{
			"sampler":0,
			"source":7
		}
	],
	"images":[
		{
			"mimeType":"image/jpeg",
			"name":"officewall",
			"uri":"officewall.jpg"
		},
		{
			"mimeType":"image/jpeg",
			"name":"ceiling",
			"uri":"ceiling.jpg"
		},
		{
			"mimeType":"image/jpeg",
			"name":"misc",
			"uri":"misc.jpg"
		},
		{
			"mimeType":"image/jpeg",
			"name":"tilefloor",
			"uri":"tilefloor.jpg"
		},
		{
			"mimeType":"image/jpeg",
			"name":"dirtymetal",
			"uri":"dirtymetal.jpg"
		},
		{
			"mimeType":"image/jpeg",
			"name":"metal",
			"uri":"metal.jpg"
		},
		{
			"mimeType":"image/jpeg",
			"name":"metalpanels",
			"uri":"metalpanels.jpg"
		},
		{
			"mimeType":"image/jpeg",
			"name":"white",
			"uri":"white.jpg"
		},
		{
			"mimeType":"image/png",
			"name":"glass",
			"uri":"glass.png"
		}
	],
	"accessors":[
		{
			"bufferView":0,
			"componentType":5126,
			"count":144,
			"max":[
				10.239999771118164,
				3.8400049209594727,
				10.24000072479248
			],
			"min":[
				-10.239999771118164,
				-5.10216932525509e-06,
				-10.239998817443848
			],
			"type":"VEC3"
		},
		{
			"bufferView":1,
			"componentType":5126,
			"count":144,
			"type":"VEC2"
		},
		{
			"bufferView":2,
			"componentType":5126,
			"count":144,
			"type":"VEC3"
		},
		{
			"bufferView":3,
			"componentType":5123,
			"count":216,
			"type":"SCALAR"
		},
		{
			"bufferView":4,
			"componentType":5126,
			"count":80,
			"max":[
				10.239999771118164,
				4.160002708435059,
				10.24000072479248
			],
			"min":[
				-10.239999771118164,
				3.8399946689605713,
				-10.239996910095215
			],
			"type":"VEC3"
		},
		{
			"bufferView":5,
			"componentType":5126,
			"count":80,
			"type":"VEC2"
		},
		{
			"bufferView":6,
			"componentType":5126,
			"count":80,
			"type":"VEC3"
		},
		{
			"bufferView":7,
			"componentType":5123,
			"count":120,
			"type":"SCALAR"
		},
		{
			"bufferView":8,
			"componentType":5126,
			"count":72,
			"max":[
				10.239999771118164,
				4.759121417999268,
				10.24000072479248
			],
			"min":[
				-10.239999771118164,
				3.8399946689605713,
				-10.239996910095215
			],
			"type":"VEC3"
		},
		{
			"bufferView":9,
			"componentType":5126,
			"count":72,
			"type":"VEC2"
		},
		{
			"bufferView":10,
			"componentType":5126,
			"count":72,
			"type":"VEC3"
		},
		{
			"bufferView":11,
			"componentType":5123,
			"count":108,
			"type":"SCALAR"
		},
		{
			"bufferView":12,
			"componentType":5126,
			"count":24,
			"max":[
				10.239999771118164,
				5.10216932525509e-06,
				10.239998817443848
			],
			"min":[
				-10.239999771118164,
				-0.010005101561546326,
				-10.239998817443848
			],
			"type":"VEC3"
		},
		{
			"bufferView":13,
			"componentType":5126,
			"count":24,
			"type":"VEC2"
		},
		{
			"bufferView":14,
			"componentType":5126,
			"count":24,
			"type":"VEC3"
		},
		{
			"bufferView":15,
			"componentType":5123,
			"count":36,
			"type":"SCALAR"
		},
		{
			"bufferView":16,
			"componentType":5126,
			"count":136,
			"max":[
				3.5999999046325684,
				4.759121417999268,
				3.6000020503997803
			],
			"min":[
				-3.5999999046325684,
				3.819997549057007,
				-3.5999975204467773
			],
			"type":"VEC3"
		},
		{
			"bufferView":17,
			"componentType":5126,
			"count":136,
			"type":"VEC2"
		},
		{
			"bufferView":18,
			"componentType":5126,
			"count":136,
			"type":"VEC3"
		},
		{
			"bufferView":19,
			"componentType":5123,
			"count":204,
			"type":"SCALAR"
		},
		{
			"bufferView":20,
			"componentType":5126,
			"count":486,
			"max":[
				-4.050000190734863,
				1.2599992752075195,
				2.200000286102295
			],
			"min":[
				-9.229999542236328,
				-6.422460501198657e-07,
				1.470000147819519
			],
			"type":"VEC3"
		},
		{
			"bufferView":21,
			"componentType":5126,
			"count":486,
			"type":"VEC2"
		},
		{
			"bufferView":22,
			"componentType":5126,
			"count":486,
			"type":"VEC3"
		},
		{
			"bufferView":23,
			"componentType":5123,
			"count":720,
			"type":"SCALAR"
		},
		{
			"bufferView":24,
			"componentType":5126,
			"count":448,
			"max":[
				-4.179999828338623,
				1.2211432456970215,
				2.170917272567749
			],
			"min":[
				-9.09999942779541,
				0.6999992728233337,
				1.5000001192092896
			],
			"type":"VEC3"
		},
		{
			"bufferView":25,
			"componentType":5126,
			"count":448,
			"type":"VEC2"
		},
		{
			"bufferView":26,
			"componentType":5126,
			"count":448,
			"type":"VEC3"
		},
		{
			"bufferView":27,
			"componentType":5123,
			"count":648,
			"type":"SCALAR"
		},
		{
			"bufferView":28,
			"componentType":5126,
			"count":176,
			"max":[
				3.840001106262207,
				14.40000057220459,
				3.84000301361084
			],
			"min":[
				-3.8399999141693115,
				3.8399977684020996,
				-3.8399970531463623
			],
			"type":"VEC3"
		},
		{
			"bufferView":29,
			"componentType":5126,
			"count":176,
			"type":"VEC2"
		},
		{
			"bufferView":30,
			"componentType":5126,
			"count":176,
			"type":"VEC3"
		},
		{
			"bufferView":31,
			"componentType":5123,
			"count":264,
			"type":"SCALAR"
		},
		{
			"bufferView":32,
			"componentType":5126,
			"count":16,
			"max":[
				3.680000066757202,
				7.0400004386901855,
				3.6800029277801514
			],
			"min":[
				-3.680000066757202,
				5.439998626708984,
				-3.679997205734253
			],
			"type":"VEC3"
		},
		{
			"bufferView":33,
			"componentType":5126,
			"count":16,
			"type":"VEC2"
		},
		{
			"bufferView":34,
			"componentType":5126,
			"count":16,
			"type":"VEC3"
		},
		{
			"bufferView":35,
			"componentType":5123,
			"count":24,
			"type":"SCALAR"
		},
		{
			"bufferView":36,
			"componentType":5126,
			"count":24,
			"max":[
				3.8399999141693115,
				14.720000267028809,
				3.8400063514709473
			],
			"min":[
				-3.8399999141693115,
				14.399996757507324,
				-3.839993476867676
			],
			"type":"VEC3"
		},
		{
			"bufferView":37,
			"componentType":5126,
			"count":24,
			"type":"VEC2"
		},
		{
			"bufferView":38,
			"componentType":5126,
			"count":24,
			"type":"VEC3"
		}
	],
	"bufferViews":[
		{
			"buffer":0,
			"byteLength":1728,
			"byteOffset":0,
			"target":34962
		},
		{
			"buffer":0,
			"byteLength":1152,
			"byteOffset":1728,
			"target":34962
		},
		{
			"buffer":0,
			"byteLength":1728,
			"byteOffset":2880,
			"target":34962
		},
		{
			"buffer":0,
			"byteLength":432,
			"byteOffset":4608,
			"target":34963
		},
		{
			"buffer":0,
			"byteLength":960,
			"byteOffset":5040,
			"target":34962
		},
		{
			"buffer":0,
			"byteLength":640,
			"byteOffset":6000,
			"target":34962
		},
		{
			"buffer":0,
			"byteLength":960,
			"byteOffset":6640,
			"target":34962
		},
		{
			"buffer":0,
			"byteLength":240,
			"byteOffset":7600,
			"target":34963
		},
		{
			"buffer":0,
			"byteLength":864,
			"byteOffset":7840,
			"target":34962
		},
		{
			"buffer":0,
			"byteLength":576,
			"byteOffset":8704,
			"target":34962
		},
		{
			"buffer":0,
			"byteLength":864,
			"byteOffset":9280,
			"target":34962
		},
		{
			"buffer":0,
			"byteLength":216,
			"byteOffset":10144,
			"target":34963
		},
		{
			"buffer":0,
			"byteLength":288,
			"byteOffset":10360,
			"target":34962
		},
		{
			"buffer":0,
			"byteLength":192,
			"byteOffset":10648,
			"target":34962
		},
		{
			"buffer":0,
			"byteLength":288,
			"byteOffset":10840,
			"target":34962
		},
		{
			"buffer":0,
			"byteLength":72,
			"byteOffset":11128,
			"target":34963
		},
		{
			"buffer":0,
			"byteLength":1632,
			"byteOffset":11200,
			"target":34962
		},
		{
			"buffer":0,
			"byteLength":1088,
			"byteOffset":12832,
			"target":34962
		},
		{
			"buffer":0,
			"byteLength":1632,
			"byteOffset":13920,
			"target":34962
		},
		{
			"buffer":0,
			"byteLength":408,
			"byteOffset":15552,
			"target":34963
		},
		{
			"buffer":0,
			"byteLength":5832,
			"byteOffset":15960,
			"target":34962
		},
		{
			"buffer":0,
			"byteLength":3888,
			"byteOffset":21792,
			"target":34962
		},
		{
			"buffer":0,
			"byteLength":5832,
			"byteOffset":25680,
			"target":34962
		},
		{
			"buffer":0,
			"byteLength":1440,
			"byteOffset":31512,
			"target":34963
		},
		{
			"buffer":0,
			"byteLength":5376,
			"byteOffset":32952,
			"target":34962
		},
		{
			"buffer":0,
			"byteLength":3584,
			"byteOffset":38328,
			"target":34962
		},
		{
			"buffer":0,
			"byteLength":5376,
			"byteOffset":41912,
			"target":34962
		},
		{
			"buffer":0,
			"byteLength":1296,
			"byteOffset":47288,
			"target":34963
		},
		{
			"buffer":0,
			"byteLength":2112,
			"byteOffset":48584,
			"target":34962
		},
		{
			"buffer":0,
			"byteLength":1408,
			"byteOffset":50696,
			"target":34962
		},
		{
			"buffer":0,
			"byteLength":2112,
			"byteOffset":52104,
			"target":34962
		},
		{
			"buffer":0,
			"byteLength":528,
			"byteOffset":54216,
			"target":34963
		},
		{
			"buffer":0,
			"byteLength":192,
			"byteOffset":54744,
			"target":34962
		},
		{
			"buffer":0,
			"byteLength":128,
			"byteOffset":54936,
			"target":34962
		},
		{
			"buffer":0,
			"byteLength":192,
			"byteOffset":55064,
			"target":34962
		},
		{
			"buffer":0,
			"byteLength":48,
			"byteOffset":55256,
			"target":34963
		},
		{
			"buffer":0,
			"byteLength":288,
			"byteOffset":55304,
			"target":34962
		},
		{
			"buffer":0,
			"byteLength":192,
			"byteOffset":55592,
			"target":34962
		},
		{
			"buffer":0,
			"byteLength":288,
			"byteOffset":55784,
			"target":34962
		}
	],
	"samplers":[
		{
			"magFilter":9729,
			"minFilter":9987
		}
	],
	"buffers":[
		{
			"byteLength":56072,
			"uri":"RZ_room4.bin"
		}
	]
}
