{
	"asset":{
		"generator":"Khronos glTF Blender I/O v4.2.57",
		"version":"2.0"
	},
	"scene":0,
	"scenes":[
		{
			"name":"Scene",
			"nodes":[
				0
			]
		}
	],
	"nodes":[
		{
			"mesh":0,
			"name":"Computer",
			"rotation":[
				0,
				0.9999948740005493,
				0,
				0.003201673738658428
			]
		}
	],
	"materials":[
		{
			"doubleSided":true,
			"name":"Computer",
			"normalTexture":{
				"index":0
			},
			"pbrMetallicRoughness":{
				"baseColorTexture":{
					"index":1
				},
				"metallicRoughnessTexture":{
					"index":2
				},
				"roughnessFactor":0.5
			}
		}
	],
	"meshes":[
		{
			"name":"Cube.001",
			"primitives":[
				{
					"attributes":{
						"POSITION":0,
						"NORMAL":1,
						"TEXCOORD_0":2
					},
					"indices":3,
					"material":0
				}
			]
		}
	],
	"textures":[
		{
			"sampler":0,
			"source":0
		},
		{
			"sampler":0,
			"source":1
		},
		{
			"sampler":0,
			"source":2
		}
	],
	"images":[
		{
			"mimeType":"image/png",
			"name":"Computer_1001_Normal",
			"uri":"Computer_1001_Normal.png"
		},
		{
			"mimeType":"image/png",
			"name":"Computer_1001_AlbedoTransparency",
			"uri":"Computer_1001_AlbedoTransparency.png"
		},
		{
			"mimeType":"image/png",
			"name":"Computer_1001_MetallicSmoothness",
			"uri":"Computer_1001_MetallicSmoothness.png"
		}
	],
	"accessors":[
		{
			"bufferView":0,
			"componentType":5126,
			"count":642,
			"max":[
				0.08985833823680878,
				0.4515018165111542,
				0.21549801528453827
			],
			"min":[
				-0.08985833078622818,
				-1.3336793891483012e-08,
				-0.19222350418567657
			],
			"type":"VEC3"
		},
		{
			"bufferView":1,
			"componentType":5126,
			"count":642,
			"type":"VEC3"
		},
		{
			"bufferView":2,
			"componentType":5126,
			"count":642,
			"type":"VEC2"
		},
		{
			"bufferView":3,
			"componentType":5123,
			"count":1644,
			"type":"SCALAR"
		}
	],
	"bufferViews":[
		{
			"buffer":0,
			"byteLength":7704,
			"byteOffset":0,
			"target":34962
		},
		{
			"buffer":0,
			"byteLength":7704,
			"byteOffset":7704,
			"target":34962
		},
		{
			"buffer":0,
			"byteLength":5136,
			"byteOffset":15408,
			"target":34962
		},
		{
			"buffer":0,
			"byteLength":3288,
			"byteOffset":20544,
			"target":34963
		}
	],
	"samplers":[
		{
			"magFilter":9729,
			"minFilter":9987
		}
	],
	"buffers":[
		{
			"byteLength":23832,
			"uri":"Computer.bin"
		}
	]
}
