{
	"asset":{
		"generator":"Khronos glTF Blender I/O v4.2.57",
		"version":"2.0"
	},
	"extensionsUsed":[
		"KHR_materials_specular",
		"KHR_materials_ior",
		"KHR_texture_transform"
	],
	"extensionsRequired":[
		"KHR_texture_transform"
	],
	"scene":0,
	"scenes":[
		{
			"name":"Scene",
			"nodes":[
				8
			]
		}
	],
	"nodes":[
		{
			"mesh":0,
			"name":"monitor-27in-zg-frame",
			"rotation":[
				-0.7071070671081543,
				0,
				0,
				0.7071065902709961
			],
			"scale":[
				44.521114349365234,
				44.521114349365234,
				50.00004577636719
			],
			"translation":[
				0,
				1.476599097251892,
				-3.5064022541046143
			]
		},
		{
			"children":[
				0
			],
			"mesh":1,
			"name":"monitorMount-zg-piv_5",
			"rotation":[
				0,
				0,
				0.7071068286895752,
				0.7071068286895752
			],
			"scale":[
				1.1230638027191162,
				1,
				1.1230636835098267
			],
			"translation":[
				-1.3997608423233032,
				0,
				0.544449508190155
			]
		},
		{
			"children":[
				1
			],
			"mesh":2,
			"name":"monitorMount-zg-piv_4",
			"rotation":[
				-0.4999999403953552,
				-0.5000001192092896,
				-0.49999961256980896,
				0.5000003576278687
			],
			"scale":[
				1.3551952838897705,
				1.3551952838897705,
				1.3551952838897705
			],
			"translation":[
				0,
				-1.2581076622009277,
				-1.227778434753418
			]
		},
		{
			"children":[
				2
			],
			"mesh":3,
			"name":"monitorMount-zg-piv_3",
			"scale":[
				0.7379010319709778,
				0.737900972366333,
				0.7379010319709778
			],
			"translation":[
				-4.517567504080944e-06,
				-1.924649953842163,
				-7.821513652801514
			]
		},
		{
			"children":[
				3
			],
			"mesh":4,
			"name":"monitorMount-zg-arm_2",
			"rotation":[
				0,
				-0.5446999669075012,
				0,
				0.8386310338973999
			],
			"translation":[
				-2.8524855224532075e-06,
				0.5772051811218262,
				2.043658241746016e-06
			]
		},
		{
			"children":[
				4
			],
			"mesh":5,
			"name":"monitorMount-zg-piv_2",
			"rotation":[
				-0.9659258723258972,
				0,
				0,
				0.2588193118572235
			],
			"translation":[
				0,
				1.4635835886001587,
				14.652582168579102
			]
		},
		{
			"children":[
				5
			],
			"mesh":6,
			"name":"monitorMount-zg-arm_1",
			"rotation":[
				-0.2588191032409668,
				0,
				0,
				0.9659258127212524
			],
			"translation":[
				0,
				2.5816969871520996,
				1.5242831707000732
			]
		},
		{
			"children":[
				6
			],
			"mesh":7,
			"name":"monitorMount-zg-piv_1",
			"rotation":[
				0,
				-0.5524514317512512,
				0,
				0.8335451483726501
			],
			"translation":[
				0,
				2.868985414505005,
				2.2739007472991943
			]
		},
		{
			"children":[
				7
			],
			"mesh":8,
			"name":"monitorMount-zg-base",
			"scale":[
				0.019999980926513672,
				0.019999980926513672,
				0.019999980926513672
			]
		}
	],
	"materials":[
		{
			"doubleSided":true,
			"extensions":{
				"KHR_materials_specular":{
					"specularFactor":0.75
				},
				"KHR_materials_ior":{
					"ior":1.4500000476837158
				}
			},
			"name":"monitor-27in-zg-plastic-black",
			"normalTexture":{
				"extensions":{
					"KHR_texture_transform":{
						"offset":[
							0,
							-2
						],
						"scale":[
							3,
							3
						]
					}
				},
				"index":0
			},
			"pbrMetallicRoughness":{
				"baseColorFactor":[
					0.0020634797401726246,
					0.0020634797401726246,
					0.0020634797401726246,
					1
				],
				"metallicFactor":0,
				"metallicRoughnessTexture":{
					"index":1
				}
			}
		},
		{
			"doubleSided":true,
			"name":"monitor-27in-zg-screen",
			"pbrMetallicRoughness":{
				"baseColorTexture":{
					"index":2
				},
				"metallicFactor":0,
				"metallicRoughnessTexture":{
					"extensions":{
						"KHR_texture_transform":{
							"offset":[
								0,
								-0.36000001430511475
							],
							"scale":[
								1.2400000095367432,
								1.3600000143051147
							]
						}
					},
					"index":3
				}
			}
		},
		{
			"doubleSided":true,
			"emissiveFactor":[
				0,
				0.26964321732521057,
				0.5488576292991638
			],
			"name":"monitor-27in-zg-light_blue",
			"pbrMetallicRoughness":{
				"baseColorFactor":[
					0,
					0.034757182002067566,
					0.14240173995494843,
					1
				],
				"metallicFactor":0,
				"roughnessFactor":0.5
			}
		},
		{
			"doubleSided":true,
			"name":"monitor-27in-zg-metal-black",
			"pbrMetallicRoughness":{
				"baseColorFactor":[
					0.052216798067092896,
					0.052216798067092896,
					0.052216798067092896,
					1
				]
			}
		},
		{
			"doubleSided":true,
			"name":"monitor-27in-zg-metal-silver",
			"pbrMetallicRoughness":{
				"baseColorFactor":[
					0.5277187824249268,
					0.5277187824249268,
					0.5277187824249268,
					1
				],
				"roughnessFactor":0.23999999463558197
			}
		}
	],
	"meshes":[
		{
			"name":"Cube.003",
			"primitives":[
				{
					"attributes":{
						"POSITION":0,
						"NORMAL":1,
						"TEXCOORD_0":2
					},
					"indices":3,
					"material":0
				},
				{
					"attributes":{
						"POSITION":4,
						"NORMAL":5,
						"TEXCOORD_0":6
					},
					"indices":7,
					"material":1
				},
				{
					"attributes":{
						"POSITION":8,
						"NORMAL":9,
						"TEXCOORD_0":10
					},
					"indices":11,
					"material":2
				}
			]
		},
		{
			"name":"Cylinder.004",
			"primitives":[
				{
					"attributes":{
						"POSITION":12,
						"NORMAL":13,
						"TEXCOORD_0":14
					},
					"indices":15,
					"material":3
				},
				{
					"attributes":{
						"POSITION":16,
						"NORMAL":17,
						"TEXCOORD_0":18
					},
					"indices":19,
					"material":4
				}
			]
		},
		{
			"name":"Cylinder.001",
			"primitives":[
				{
					"attributes":{
						"POSITION":20,
						"NORMAL":21,
						"TEXCOORD_0":22
					},
					"indices":23,
					"material":0
				}
			]
		},
		{
			"name":"Cube.010",
			"primitives":[
				{
					"attributes":{
						"POSITION":24,
						"NORMAL":25,
						"TEXCOORD_0":26
					},
					"indices":27,
					"material":0
				}
			]
		},
		{
			"name":"Cube.009",
			"primitives":[
				{
					"attributes":{
						"POSITION":28,
						"NORMAL":29,
						"TEXCOORD_0":30
					},
					"indices":31,
					"material":0
				}
			]
		},
		{
			"name":"Cube.006",
			"primitives":[
				{
					"attributes":{
						"POSITION":32,
						"NORMAL":33,
						"TEXCOORD_0":34
					},
					"indices":35,
					"material":0
				}
			]
		},
		{
			"name":"Cube.005",
			"primitives":[
				{
					"attributes":{
						"POSITION":36,
						"NORMAL":37,
						"TEXCOORD_0":38
					},
					"indices":39,
					"material":0
				}
			]
		},
		{
			"name":"Cube.004",
			"primitives":[
				{
					"attributes":{
						"POSITION":40,
						"NORMAL":41,
						"TEXCOORD_0":42
					},
					"indices":43,
					"material":0
				}
			]
		},
		{
			"name":"Cube.002",
			"primitives":[
				{
					"attributes":{
						"POSITION":44,
						"NORMAL":45,
						"TEXCOORD_0":46
					},
					"indices":47,
					"material":0
				}
			]
		}
	],
	"textures":[
		{
			"sampler":0,
			"source":0
		},
		{
			"sampler":0,
			"source":1
		},
		{
			"sampler":0,
			"source":2
		},
		{
			"sampler":0,
			"source":3
		}
	],
	"images":[
		{
			"mimeType":"image/jpeg",
			"name":"Plastic003_2K_Normal",
			"uri":"Plastic003_2K_Normal.jpg"
		},
		{
			"mimeType":"image/png",
			"name":"Plastic003_2K_Roughness",
			"uri":"Plastic003_2K_Roughness.png"
		},
		{
			"mimeType":"image/png",
			"name":"monitor-27in-zg-screen-blender",
			"uri":"monitor-27in-zg-screen-blender.png"
		},
		{
			"mimeType":"image/png",
			"name":"Smudges_01_2K",
			"uri":"Smudges_01_2K.png"
		}
	],
	"accessors":[
		{
			"bufferView":0,
			"componentType":5126,
			"count":526,
			"max":[
				0.3099125325679779,
				0.17973768711090088,
				0.011557742021977901
			],
			"min":[
				-0.3101488947868347,
				-0.17973768711090088,
				-0.02315106987953186
			],
			"type":"VEC3"
		},
		{
			"bufferView":1,
			"componentType":5126,
			"count":526,
			"type":"VEC3"
		},
		{
			"bufferView":2,
			"componentType":5126,
			"count":526,
			"type":"VEC2"
		},
		{
			"bufferView":3,
			"componentType":5123,
			"count":1896,
			"type":"SCALAR"
		},
		{
			"bufferView":4,
			"componentType":5126,
			"count":6,
			"max":[
				0.29880762100219727,
				0.17101742327213287,
				0.008807182312011719
			],
			"min":[
				-0.29809170961380005,
				-0.16301114857196808,
				0.008807182312011719
			],
			"type":"VEC3"
		},
		{
			"bufferView":5,
			"componentType":5126,
			"count":6,
			"type":"VEC3"
		},
		{
			"bufferView":6,
			"componentType":5126,
			"count":6,
			"type":"VEC2"
		},
		{
			"bufferView":7,
			"componentType":5123,
			"count":12,
			"type":"SCALAR"
		},
		{
			"bufferView":8,
			"componentType":5126,
			"count":104,
			"max":[
				0.28592994809150696,
				-0.17330078780651093,
				0.012542476877570152
			],
			"min":[
				0.2834796607494354,
				-0.17575109004974365,
				0.011557746678590775
			],
			"type":"VEC3"
		},
		{
			"bufferView":9,
			"componentType":5126,
			"count":104,
			"type":"VEC3"
		},
		{
			"bufferView":10,
			"componentType":5126,
			"count":104,
			"type":"VEC2"
		},
		{
			"bufferView":11,
			"componentType":5123,
			"count":282,
			"type":"SCALAR"
		},
		{
			"bufferView":12,
			"componentType":5126,
			"count":1028,
			"max":[
				2.4731545448303223,
				0.3084540367126465,
				2.461254596710205
			],
			"min":[
				-2.473154067993164,
				-2.9802322387695312e-08,
				-2.4850542545318604
			],
			"type":"VEC3"
		},
		{
			"bufferView":13,
			"componentType":5126,
			"count":1028,
			"type":"VEC3"
		},
		{
			"bufferView":14,
			"componentType":5126,
			"count":1028,
			"type":"VEC2"
		},
		{
			"bufferView":15,
			"componentType":5123,
			"count":3186,
			"type":"SCALAR"
		},
		{
			"bufferView":16,
			"componentType":5126,
			"count":1504,
			"max":[
				2.3601818084716797,
				0.35377952456474304,
				2.348250389099121
			],
			"min":[
				-2.3618416786193848,
				0.08246108889579773,
				-2.373737096786499
			],
			"type":"VEC3"
		},
		{
			"bufferView":17,
			"componentType":5126,
			"count":1504,
			"type":"VEC3"
		},
		{
			"bufferView":18,
			"componentType":5126,
			"count":1504,
			"type":"VEC2"
		},
		{
			"bufferView":19,
			"componentType":5123,
			"count":5328,
			"type":"SCALAR"
		},
		{
			"bufferView":20,
			"componentType":5126,
			"count":944,
			"max":[
				0.6190779805183411,
				1.290123462677002,
				1.6745085716247559
			],
			"min":[
				-1.3997621536254883,
				-1.2901250123977661,
				-0.6194834113121033
			],
			"type":"VEC3"
		},
		{
			"bufferView":21,
			"componentType":5126,
			"count":944,
			"type":"VEC3"
		},
		{
			"bufferView":22,
			"componentType":5126,
			"count":944,
			"type":"VEC2"
		},
		{
			"bufferView":23,
			"componentType":5123,
			"count":2280,
			"type":"SCALAR"
		},
		{
			"bufferView":24,
			"componentType":5126,
			"count":559,
			"max":[
				1.136240005493164,
				-1.0967254638671875e-05,
				1.136235237121582
			],
			"min":[
				-1.1362367868423462,
				-1.9685492515563965,
				-2.023951530456543
			],
			"type":"VEC3"
		},
		{
			"bufferView":25,
			"componentType":5126,
			"count":559,
			"type":"VEC3"
		},
		{
			"bufferView":26,
			"componentType":5126,
			"count":559,
			"type":"VEC2"
		},
		{
			"bufferView":27,
			"componentType":5123,
			"count":2418,
			"type":"SCALAR"
		},
		{
			"bufferView":28,
			"componentType":5126,
			"count":419,
			"max":[
				1.1362382173538208,
				-1.0967254638671875e-05,
				1.136235237121582
			],
			"min":[
				-1.1362394094467163,
				-1.9685492515563965,
				-8.713595390319824
			],
			"type":"VEC3"
		},
		{
			"bufferView":29,
			"componentType":5126,
			"count":419,
			"type":"VEC3"
		},
		{
			"bufferView":30,
			"componentType":5126,
			"count":419,
			"type":"VEC2"
		},
		{
			"bufferView":31,
			"componentType":5123,
			"count":1656,
			"type":"SCALAR"
		},
		{
			"bufferView":32,
			"componentType":5126,
			"count":508,
			"max":[
				1.0928288698196411,
				3.794060468673706,
				1.5587539672851562
			],
			"min":[
				-1.0928295850753784,
				-3.814697265625e-06,
				-1.0928288698196411
			],
			"type":"VEC3"
		},
		{
			"bufferView":33,
			"componentType":5126,
			"count":508,
			"type":"VEC3"
		},
		{
			"bufferView":34,
			"componentType":5126,
			"count":508,
			"type":"VEC2"
		},
		{
			"bufferView":35,
			"componentType":5123,
			"count":1512,
			"type":"SCALAR"
		},
		{
			"bufferView":36,
			"componentType":5126,
			"count":436,
			"max":[
				0.9755777716636658,
				1.3110817670822144,
				13.15281867980957
			],
			"min":[
				-0.9866045713424683,
				-1.938366413116455,
				-1
			],
			"type":"VEC3"
		},
		{
			"bufferView":37,
			"componentType":5126,
			"count":436,
			"type":"VEC3"
		},
		{
			"bufferView":38,
			"componentType":5126,
			"count":436,
			"type":"VEC2"
		},
		{
			"bufferView":39,
			"componentType":5123,
			"count":1320,
			"type":"SCALAR"
		},
		{
			"bufferView":40,
			"componentType":5126,
			"count":604,
			"max":[
				1.0928288698196411,
				3.7940642833709717,
				1.5587540864944458
			],
			"min":[
				-1.0928295850753784,
				0,
				-1.0928287506103516
			],
			"type":"VEC3"
		},
		{
			"bufferView":41,
			"componentType":5126,
			"count":604,
			"type":"VEC3"
		},
		{
			"bufferView":42,
			"componentType":5126,
			"count":604,
			"type":"VEC2"
		},
		{
			"bufferView":43,
			"componentType":5123,
			"count":1794,
			"type":"SCALAR"
		},
		{
			"bufferView":44,
			"componentType":5126,
			"count":660,
			"max":[
				3.0197579860687256,
				3.4233860969543457,
				5.276968002319336
			],
			"min":[
				-3.0197579860687256,
				0,
				0
			],
			"type":"VEC3"
		},
		{
			"bufferView":45,
			"componentType":5126,
			"count":660,
			"type":"VEC3"
		},
		{
			"bufferView":46,
			"componentType":5126,
			"count":660,
			"type":"VEC2"
		},
		{
			"bufferView":47,
			"componentType":5123,
			"count":2544,
			"type":"SCALAR"
		}
	],
	"bufferViews":[
		{
			"buffer":0,
			"byteLength":6312,
			"byteOffset":0,
			"target":34962
		},
		{
			"buffer":0,
			"byteLength":6312,
			"byteOffset":6312,
			"target":34962
		},
		{
			"buffer":0,
			"byteLength":4208,
			"byteOffset":12624,
			"target":34962
		},
		{
			"buffer":0,
			"byteLength":3792,
			"byteOffset":16832,
			"target":34963
		},
		{
			"buffer":0,
			"byteLength":72,
			"byteOffset":20624,
			"target":34962
		},
		{
			"buffer":0,
			"byteLength":72,
			"byteOffset":20696,
			"target":34962
		},
		{
			"buffer":0,
			"byteLength":48,
			"byteOffset":20768,
			"target":34962
		},
		{
			"buffer":0,
			"byteLength":24,
			"byteOffset":20816,
			"target":34963
		},
		{
			"buffer":0,
			"byteLength":1248,
			"byteOffset":20840,
			"target":34962
		},
		{
			"buffer":0,
			"byteLength":1248,
			"byteOffset":22088,
			"target":34962
		},
		{
			"buffer":0,
			"byteLength":832,
			"byteOffset":23336,
			"target":34962
		},
		{
			"buffer":0,
			"byteLength":564,
			"byteOffset":24168,
			"target":34963
		},
		{
			"buffer":0,
			"byteLength":12336,
			"byteOffset":24732,
			"target":34962
		},
		{
			"buffer":0,
			"byteLength":12336,
			"byteOffset":37068,
			"target":34962
		},
		{
			"buffer":0,
			"byteLength":8224,
			"byteOffset":49404,
			"target":34962
		},
		{
			"buffer":0,
			"byteLength":6372,
			"byteOffset":57628,
			"target":34963
		},
		{
			"buffer":0,
			"byteLength":18048,
			"byteOffset":64000,
			"target":34962
		},
		{
			"buffer":0,
			"byteLength":18048,
			"byteOffset":82048,
			"target":34962
		},
		{
			"buffer":0,
			"byteLength":12032,
			"byteOffset":100096,
			"target":34962
		},
		{
			"buffer":0,
			"byteLength":10656,
			"byteOffset":112128,
			"target":34963
		},
		{
			"buffer":0,
			"byteLength":11328,
			"byteOffset":122784,
			"target":34962
		},
		{
			"buffer":0,
			"byteLength":11328,
			"byteOffset":134112,
			"target":34962
		},
		{
			"buffer":0,
			"byteLength":7552,
			"byteOffset":145440,
			"target":34962
		},
		{
			"buffer":0,
			"byteLength":4560,
			"byteOffset":152992,
			"target":34963
		},
		{
			"buffer":0,
			"byteLength":6708,
			"byteOffset":157552,
			"target":34962
		},
		{
			"buffer":0,
			"byteLength":6708,
			"byteOffset":164260,
			"target":34962
		},
		{
			"buffer":0,
			"byteLength":4472,
			"byteOffset":170968,
			"target":34962
		},
		{
			"buffer":0,
			"byteLength":4836,
			"byteOffset":175440,
			"target":34963
		},
		{
			"buffer":0,
			"byteLength":5028,
			"byteOffset":180276,
			"target":34962
		},
		{
			"buffer":0,
			"byteLength":5028,
			"byteOffset":185304,
			"target":34962
		},
		{
			"buffer":0,
			"byteLength":3352,
			"byteOffset":190332,
			"target":34962
		},
		{
			"buffer":0,
			"byteLength":3312,
			"byteOffset":193684,
			"target":34963
		},
		{
			"buffer":0,
			"byteLength":6096,
			"byteOffset":196996,
			"target":34962
		},
		{
			"buffer":0,
			"byteLength":6096,
			"byteOffset":203092,
			"target":34962
		},
		{
			"buffer":0,
			"byteLength":4064,
			"byteOffset":209188,
			"target":34962
		},
		{
			"buffer":0,
			"byteLength":3024,
			"byteOffset":213252,
			"target":34963
		},
		{
			"buffer":0,
			"byteLength":5232,
			"byteOffset":216276,
			"target":34962
		},
		{
			"buffer":0,
			"byteLength":5232,
			"byteOffset":221508,
			"target":34962
		},
		{
			"buffer":0,
			"byteLength":3488,
			"byteOffset":226740,
			"target":34962
		},
		{
			"buffer":0,
			"byteLength":2640,
			"byteOffset":230228,
			"target":34963
		},
		{
			"buffer":0,
			"byteLength":7248,
			"byteOffset":232868,
			"target":34962
		},
		{
			"buffer":0,
			"byteLength":7248,
			"byteOffset":240116,
			"target":34962
		},
		{
			"buffer":0,
			"byteLength":4832,
			"byteOffset":247364,
			"target":34962
		},
		{
			"buffer":0,
			"byteLength":3588,
			"byteOffset":252196,
			"target":34963
		},
		{
			"buffer":0,
			"byteLength":7920,
			"byteOffset":255784,
			"target":34962
		},
		{
			"buffer":0,
			"byteLength":7920,
			"byteOffset":263704,
			"target":34962
		},
		{
			"buffer":0,
			"byteLength":5280,
			"byteOffset":271624,
			"target":34962
		},
		{
			"buffer":0,
			"byteLength":5088,
			"byteOffset":276904,
			"target":34963
		}
	],
	"samplers":[
		{
			"magFilter":9729,
			"minFilter":9987
		}
	],
	"buffers":[
		{
			"byteLength":281992,
			"uri":"27-inch-monitor-with-movable-mount.bin"
		}
	]
}
