{
	"asset":{
		"generator":"Khronos glTF Blender I/O v4.2.57",
		"version":"2.0"
	},
	"scene":0,
	"scenes":[
		{
			"name":"Scene",
			"nodes":[
				0,
				1,
				2,
				3
			]
		}
	],
	"nodes":[
		{
			"mesh":0,
			"name":"Cylinder",
			"translation":[
				0,
				-0.6899999976158142,
				0
			]
		},
		{
			"mesh":1,
			"name":"Cylinder.001",
			"rotation":[
				0.033243563026189804,
				-0.043831855058670044,
				-0.6318049430847168,
				0.7731727957725525
			],
			"translation":[
				0.9064590930938721,
				-0.058845244348049164,
				0.29962629079818726
			]
		},
		{
			"mesh":2,
			"name":"Cylinder.002",
			"rotation":[
				-0.015180490911006927,
				0.016552675515413284,
				-0.6565759778022766,
				0.7539255619049072
			],
			"translation":[
				0.9248520731925964,
				-0.058845244348049164,
				-0.22291135787963867
			]
		},
		{
			"mesh":3,
			"name":"Cylinder.004",
			"rotation":[
				0,
				0,
				-0.4857138395309448,
				0.874117910861969
			],
			"translation":[
				0.7958896160125732,
				0.3474986255168915,
				0.07847976684570312
			]
		}
	],
	"materials":[
		{
			"doubleSided":true,
			"name":"Material",
			"normalTexture":{
				"index":0
			},
			"pbrMetallicRoughness":{
				"baseColorTexture":{
					"index":1
				},
				"metallicFactor":0,
				"metallicRoughnessTexture":{
					"index":2
				}
			}
		},
		{
			"doubleSided":true,
			"name":"Button",
			"normalTexture":{
				"index":3
			},
			"pbrMetallicRoughness":{
				"baseColorTexture":{
					"index":4
				},
				"metallicFactor":0,
				"metallicRoughnessTexture":{
					"index":5
				}
			}
		}
	],
	"meshes":[
		{
			"name":"Cylinder",
			"primitives":[
				{
					"attributes":{
						"POSITION":0,
						"NORMAL":1,
						"TEXCOORD_0":2
					},
					"indices":3,
					"material":0
				}
			]
		},
		{
			"name":"Cylinder.001",
			"primitives":[
				{
					"attributes":{
						"POSITION":4,
						"NORMAL":5,
						"TEXCOORD_0":6
					},
					"indices":7,
					"material":1
				}
			]
		},
		{
			"name":"Cylinder.005",
			"primitives":[
				{
					"attributes":{
						"POSITION":8,
						"NORMAL":9,
						"TEXCOORD_0":10
					},
					"indices":7,
					"material":1
				}
			]
		},
		{
			"name":"Cylinder.006",
			"primitives":[
				{
					"attributes":{
						"POSITION":11,
						"NORMAL":12,
						"TEXCOORD_0":13
					},
					"indices":7,
					"material":1
				}
			]
		}
	],
	"textures":[
		{
			"sampler":0,
			"source":0
		},
		{
			"sampler":0,
			"source":1
		},
		{
			"sampler":0,
			"source":2
		},
		{
			"sampler":0,
			"source":3
		},
		{
			"sampler":0,
			"source":4
		},
		{
			"sampler":0,
			"source":5
		}
	],
	"images":[
		{
			"mimeType":"image/png",
			"name":"Omnidot_Cylinder_nor",
			"uri":"Omnidot_Cylinder_nor.png"
		},
		{
			"mimeType":"image/png",
			"name":"Omnidot_Cylinder_base",
			"uri":"Omnidot_Cylinder_base.png"
		},
		{
			"mimeType":"image/png",
			"name":"Omnidot_Cylinder_rough",
			"uri":"Omnidot_Cylinder_rough.png"
		},
		{
			"mimeType":"image/png",
			"name":"Omnidot_Cylinder.001_nor",
			"uri":"Omnidot_Cylinder_001_nor.png"
		},
		{
			"mimeType":"image/png",
			"name":"Omnidot_Cylinder.001_base",
			"uri":"Omnidot_Cylinder_001_base.png"
		},
		{
			"mimeType":"image/png",
			"name":"Omnidot_Cylinder.001_rough",
			"uri":"Omnidot_Cylinder_001_rough.png"
		}
	],
	"accessors":[
		{
			"bufferView":0,
			"componentType":5126,
			"count":2035,
			"max":[
				0.9373010993003845,
				1.7078434228897095,
				1.2285391092300415
			],
			"min":[
				-0.981548547744751,
				-0.1723415106534958,
				-1.2019617557525635
			],
			"type":"VEC3"
		},
		{
			"bufferView":1,
			"componentType":5126,
			"count":2035,
			"type":"VEC3"
		},
		{
			"bufferView":2,
			"componentType":5126,
			"count":2035,
			"type":"VEC2"
		},
		{
			"bufferView":3,
			"componentType":5123,
			"count":8322,
			"type":"SCALAR"
		},
		{
			"bufferView":4,
			"componentType":5126,
			"count":336,
			"max":[
				0.15999998152256012,
				0.020000044256448746,
				0.1600000113248825
			],
			"min":[
				-0.15999998152256012,
				-0.020000044256448746,
				-0.1600000113248825
			],
			"type":"VEC3"
		},
		{
			"bufferView":5,
			"componentType":5126,
			"count":336,
			"type":"VEC3"
		},
		{
			"bufferView":6,
			"componentType":5126,
			"count":336,
			"type":"VEC2"
		},
		{
			"bufferView":7,
			"componentType":5123,
			"count":780,
			"type":"SCALAR"
		},
		{
			"bufferView":8,
			"componentType":5126,
			"count":336,
			"max":[
				0.15999998152256012,
				0.020000044256448746,
				0.1600000113248825
			],
			"min":[
				-0.15999998152256012,
				-0.020000044256448746,
				-0.1600000113248825
			],
			"type":"VEC3"
		},
		{
			"bufferView":9,
			"componentType":5126,
			"count":336,
			"type":"VEC3"
		},
		{
			"bufferView":10,
			"componentType":5126,
			"count":336,
			"type":"VEC2"
		},
		{
			"bufferView":11,
			"componentType":5126,
			"count":336,
			"max":[
				0.15999998152256012,
				0.020000044256448746,
				0.1600000113248825
			],
			"min":[
				-0.15999998152256012,
				-0.020000044256448746,
				-0.1600000113248825
			],
			"type":"VEC3"
		},
		{
			"bufferView":12,
			"componentType":5126,
			"count":336,
			"type":"VEC3"
		},
		{
			"bufferView":13,
			"componentType":5126,
			"count":336,
			"type":"VEC2"
		}
	],
	"bufferViews":[
		{
			"buffer":0,
			"byteLength":24420,
			"byteOffset":0,
			"target":34962
		},
		{
			"buffer":0,
			"byteLength":24420,
			"byteOffset":24420,
			"target":34962
		},
		{
			"buffer":0,
			"byteLength":16280,
			"byteOffset":48840,
			"target":34962
		},
		{
			"buffer":0,
			"byteLength":16644,
			"byteOffset":65120,
			"target":34963
		},
		{
			"buffer":0,
			"byteLength":4032,
			"byteOffset":81764,
			"target":34962
		},
		{
			"buffer":0,
			"byteLength":4032,
			"byteOffset":85796,
			"target":34962
		},
		{
			"buffer":0,
			"byteLength":2688,
			"byteOffset":89828,
			"target":34962
		},
		{
			"buffer":0,
			"byteLength":1560,
			"byteOffset":92516,
			"target":34963
		},
		{
			"buffer":0,
			"byteLength":4032,
			"byteOffset":94076,
			"target":34962
		},
		{
			"buffer":0,
			"byteLength":4032,
			"byteOffset":98108,
			"target":34962
		},
		{
			"buffer":0,
			"byteLength":2688,
			"byteOffset":102140,
			"target":34962
		},
		{
			"buffer":0,
			"byteLength":4032,
			"byteOffset":104828,
			"target":34962
		},
		{
			"buffer":0,
			"byteLength":4032,
			"byteOffset":108860,
			"target":34962
		},
		{
			"buffer":0,
			"byteLength":2688,
			"byteOffset":112892,
			"target":34962
		}
	],
	"samplers":[
		{
			"magFilter":9729,
			"minFilter":9987
		}
	],
	"buffers":[
		{
			"byteLength":115580,
			"uri":"OmnidotplushV2.bin"
		}
	]
}
